<svg width="56" height="51" viewBox="0 0 56 51" fill="none" xmlns="http://www.w3.org/2000/svg">
<circle cx="25.8305" cy="24.9574" r="23.4574" fill="#282836" stroke="#3D3D4E" stroke-width="3"/>
<path d="M22.1931 35.7872C22.1931 35.7872 23.5078 34.6784 23.5279 31.9742C27.9001 29.4501 30.8874 26.3048 30.8874 26.3048C30.8874 26.3048 33.015 29.1692 30.7865 31.7857C26.969 36.2664 22.1931 35.7872 22.1931 35.7872ZM16.2371 27.9994C16.2371 27.9994 19.321 20.7873 21.3357 18.4218C22.2423 17.3575 23.1685 16.5127 24.0869 15.8119L32.1632 22.6908C31.6182 23.7108 30.9316 24.7608 30.0257 25.8245C28.0415 28.154 21.387 32.3859 21.387 32.3859L16.2371 27.9994ZM27.0121 20.5529C26.1039 19.7794 24.7386 19.8903 23.9628 20.8011C23.1875 21.7114 23.2947 23.0776 24.2029 23.8511C25.1111 24.6246 26.477 24.5143 27.2528 23.6034C28.0293 22.6931 27.9209 21.327 27.0121 20.5529ZM32.9313 12.8871L34.8439 10.6416L35.4843 11.1871L33.6205 13.3754C33.8976 14.533 34.4319 17.9188 32.5411 21.9538L24.7531 15.3204C28.3292 12.876 31.6456 12.8021 32.9313 12.8871ZM12.7514 27.7453C12.7514 27.7453 11.5185 23.1065 15.3353 18.6253C17.5638 16.0088 20.7303 17.6536 20.7303 17.6536C20.7303 17.6536 18.1003 21.1033 16.3035 25.8209C13.6357 26.2711 12.7514 27.7453 12.7514 27.7453ZM18.2732 33.02L18.1947 32.0249L16.0957 33.3306L16.9425 30.9584L15.6842 31.4938L16.4393 29.2294L20.1232 32.3672L18.2732 33.02Z" fill="#3D3D4E"/>
<circle cx="44.8193" cy="40.6914" r="10.3085" fill="#282836"/>
<path d="M44.9197 33.8669L46.7572 37.5939C46.7812 37.6459 46.8331 37.6818 46.8891 37.6898L50.9996 38.289C51.3311 38.3369 51.463 38.7444 51.2233 38.9801L48.3351 41.7923C48.2392 41.8842 48.1953 42.02 48.2193 42.1519L48.9024 46.1265C48.9583 46.4581 48.6108 46.7098 48.3152 46.5539L44.6361 44.6205C44.5842 44.5926 44.5243 44.5926 44.4723 44.6205L40.7932 46.5539C40.4976 46.7098 40.1501 46.4581 40.206 46.1265L40.9131 42.032C40.9211 41.9761 40.9051 41.9162 40.8611 41.8762L37.8891 38.9761C37.6494 38.7404 37.7812 38.333 38.1128 38.285L42.2233 37.6858C42.2792 37.6778 42.3312 37.6419 42.3551 37.5899L44.1927 33.8629C44.3405 33.5673 44.7719 33.5673 44.9197 33.8669Z" fill="url(#paint0_radial_0_262)"/>
<path d="M40.0462 40.2423C39.2752 39.4714 38.1847 38.5925 38.4124 38.245L38.1128 38.2889C37.7812 38.3369 37.6494 38.7444 37.8891 38.98L40.8651 41.8801C40.9051 41.9201 40.925 41.98 40.9171 42.0359C41.0209 41.3089 40.8172 41.0093 40.0462 40.2423Z" fill="url(#paint1_radial_0_262)"/>
<path d="M49.065 40.2423C49.836 39.4714 50.9265 38.5925 50.6987 38.245L50.9984 38.2889C51.3299 38.3369 51.4618 38.7444 51.2221 38.98L48.2461 41.8801C48.2061 41.9201 48.1862 41.98 48.1941 42.0359C48.0902 41.3089 48.294 41.0093 49.065 40.2423Z" fill="url(#paint2_radial_0_262)"/>
<path d="M51.0006 38.2892L46.8901 37.69C46.8342 37.682 46.7823 37.646 46.7583 37.5941L44.9207 33.8671C44.9207 33.8671 44.753 34.0748 45.1325 34.8657C45.3802 35.381 46.0313 36.8031 46.3868 37.5382C46.5865 37.9536 46.8901 37.9616 47.3495 38.0215L50.3855 38.409C50.3815 38.413 50.717 38.441 51.0006 38.2892Z" fill="url(#paint3_radial_0_262)"/>
<path d="M44.9197 33.8669L46.7572 37.5939C46.7812 37.6459 46.8331 37.6818 46.8891 37.6898L50.9996 38.289C51.3311 38.3369 51.463 38.7444 51.2233 38.9801L48.3351 41.7923C48.2392 41.8842 48.1953 42.02 48.2193 42.1519L48.9024 46.1265C48.9583 46.4581 48.6108 46.7098 48.3152 46.5539L44.6361 44.6205C44.5842 44.5926 44.5243 44.5926 44.4723 44.6205L40.7932 46.5539C40.4976 46.7098 40.1501 46.4581 40.206 46.1265L40.9131 42.032C40.9211 41.9761 40.9051 41.9162 40.8611 41.8762L37.8891 38.9761C37.6494 38.7404 37.7812 38.333 38.1128 38.285L42.2233 37.6858C42.2792 37.6778 42.3312 37.6419 42.3551 37.5899L44.1927 33.8629C44.3405 33.5673 44.7719 33.5673 44.9197 33.8669Z" fill="url(#paint4_radial_0_262)"/>
<path d="M44.9197 33.8669L46.7572 37.5939C46.7812 37.6459 46.8331 37.6818 46.8891 37.6898L50.9996 38.289C51.3311 38.3369 51.463 38.7444 51.2233 38.9801L48.3351 41.7923C48.2392 41.8842 48.1953 42.02 48.2193 42.1519L48.9024 46.1265C48.9583 46.4581 48.6108 46.7098 48.3152 46.5539L44.6361 44.6205C44.5842 44.5926 44.5243 44.5926 44.4723 44.6205L40.7932 46.5539C40.4976 46.7098 40.1501 46.4581 40.206 46.1265L40.9131 42.032C40.9211 41.9761 40.9051 41.9162 40.8611 41.8762L37.8891 38.9761C37.6494 38.7404 37.7812 38.333 38.1128 38.285L42.2233 37.6858C42.2792 37.6778 42.3312 37.6419 42.3551 37.5899L44.1927 33.8629C44.3405 33.5673 44.7719 33.5673 44.9197 33.8669Z" fill="url(#paint5_radial_0_262)"/>
<path d="M44.1927 33.8669L42.3551 37.5939C42.3312 37.6459 42.2792 37.6818 42.2233 37.6898L38.1128 38.289C37.7812 38.3369 37.6494 38.7444 37.8891 38.9801L40.7772 41.7923C40.8731 41.8842 40.9171 42.02 40.8931 42.1519L40.21 46.1265C40.1541 46.4581 40.5016 46.7098 40.7972 46.5539L44.4763 44.6205C44.5282 44.5926 44.5882 44.5926 44.6401 44.6205L48.3191 46.5539C48.6148 46.7098 48.9623 46.4581 48.9064 46.1265L48.1993 42.032C48.1913 41.9761 48.2073 41.9162 48.2513 41.8762L51.2273 38.9761C51.467 38.7404 51.3351 38.333 51.0035 38.285L46.893 37.6858C46.8371 37.6778 46.7852 37.6419 46.7613 37.5899L44.9237 33.8629C44.7719 33.5673 44.3405 33.5673 44.1927 33.8669Z" fill="url(#paint6_radial_0_262)"/>
<path d="M44.1927 33.8669L42.3551 37.5939C42.3312 37.6459 42.2792 37.6818 42.2233 37.6898L38.1128 38.289C37.7812 38.3369 37.6494 38.7444 37.8891 38.9801L40.7772 41.7923C40.8731 41.8842 40.9171 42.02 40.8931 42.1519L40.21 46.1265C40.1541 46.4581 40.5016 46.7098 40.7972 46.5539L44.4763 44.6205C44.5282 44.5926 44.5882 44.5926 44.6401 44.6205L48.3191 46.5539C48.6148 46.7098 48.9623 46.4581 48.9064 46.1265L48.1993 42.032C48.1913 41.9761 48.2073 41.9162 48.2513 41.8762L51.2273 38.9761C51.467 38.7404 51.3351 38.333 51.0035 38.285L46.893 37.6858C46.8371 37.6778 46.7852 37.6419 46.7613 37.5899L44.9237 33.8629C44.7719 33.5673 44.3405 33.5673 44.1927 33.8669Z" fill="url(#paint7_radial_0_262)"/>
<path opacity="0.24" d="M44.1927 33.8669L42.3551 37.5939C42.3312 37.6459 42.2792 37.6818 42.2233 37.6898L38.1128 38.289C37.7812 38.3369 37.6494 38.7444 37.8891 38.9801L40.7772 41.7923C40.8731 41.8842 40.9171 42.02 40.8931 42.1519L40.21 46.1265C40.1541 46.4581 40.5016 46.7098 40.7972 46.5539L44.4763 44.6205C44.5282 44.5926 44.5882 44.5926 44.6401 44.6205L48.3191 46.5539C48.6148 46.7098 48.9623 46.4581 48.9064 46.1265L48.1993 42.032C48.1913 41.9761 48.2073 41.9162 48.2513 41.8762L51.2273 38.9761C51.467 38.7404 51.3351 38.333 51.0035 38.285L46.893 37.6858C46.8371 37.6778 46.7852 37.6419 46.7613 37.5899L44.9237 33.8629C44.7719 33.5673 44.3405 33.5673 44.1927 33.8669Z" fill="url(#paint8_radial_0_262)"/>
<path opacity="0.24" d="M44.1927 33.8669L42.3551 37.5939C42.3312 37.6459 42.2792 37.6818 42.2233 37.6898L38.1128 38.289C37.7812 38.3369 37.6494 38.7444 37.8891 38.9801L40.7772 41.7923C40.8731 41.8842 40.9171 42.02 40.8931 42.1519L40.21 46.1265C40.1541 46.4581 40.5016 46.7098 40.7972 46.5539L44.4763 44.6205C44.5282 44.5926 44.5882 44.5926 44.6401 44.6205L48.3191 46.5539C48.6148 46.7098 48.9623 46.4581 48.9064 46.1265L48.1993 42.032C48.1913 41.9761 48.2073 41.9162 48.2513 41.8762L51.2273 38.9761C51.467 38.7404 51.3351 38.333 51.0035 38.285L46.893 37.6858C46.8371 37.6778 46.7852 37.6419 46.7613 37.5899L44.9237 33.8629C44.7719 33.5673 44.3405 33.5673 44.1927 33.8669Z" fill="url(#paint9_radial_0_262)"/>
<path d="M38.1133 38.2892L42.2238 37.69C42.2797 37.682 42.3316 37.646 42.3556 37.5941L44.1932 33.8671C44.1932 33.8671 44.361 34.0748 43.9814 34.8657C43.7338 35.381 43.0826 36.8031 42.7271 37.5382C42.5274 37.9536 42.2238 37.9616 41.7644 38.0215L38.7285 38.409C38.7325 38.413 38.3969 38.441 38.1133 38.2892Z" fill="url(#paint10_radial_0_262)"/>
<path opacity="0.5" d="M44.9197 33.8669L46.7572 37.5939C46.7812 37.6459 46.8331 37.6818 46.8891 37.6898L50.9996 38.289C51.3311 38.3369 51.463 38.7444 51.2233 38.9801L48.3351 41.7923C48.2392 41.8842 48.1953 42.02 48.2193 42.1519L48.9024 46.1265C48.9583 46.4581 48.6108 46.7098 48.3152 46.5539L44.6361 44.6205C44.5842 44.5926 44.5243 44.5926 44.4723 44.6205L40.7932 46.5539C40.4976 46.7098 40.1501 46.4581 40.206 46.1265L40.9131 42.032C40.9211 41.9761 40.9051 41.9162 40.8611 41.8762L37.8891 38.9761C37.6494 38.7404 37.7812 38.333 38.1128 38.285L42.2233 37.6858C42.2792 37.6778 42.3312 37.6419 42.3551 37.5899L44.1927 33.8629C44.3405 33.5673 44.7719 33.5673 44.9197 33.8669Z" fill="url(#paint11_radial_0_262)"/>
<path d="M48.9024 46.1266L48.2193 42.1519C48.1953 42.0201 48.2392 41.8883 48.3351 41.7924L51.2233 38.9762C51.463 38.7405 51.3311 38.333 50.9996 38.2851L46.8891 37.6859C46.8331 37.6779 46.7812 37.6419 46.7572 37.59L44.9197 33.863C44.7719 33.5634 44.3445 33.5634 44.1927 33.863L42.3551 37.59C42.3312 37.6419 42.2792 37.6779 42.2233 37.6859L38.1128 38.2851C37.7812 38.333 37.6494 38.7405 37.8891 38.9762L40.8651 41.8763C40.9051 41.9163 40.925 41.9762 40.9171 42.0321L40.21 46.1266C40.1541 46.4582 40.5016 46.7098 40.7972 46.5541L44.4763 44.6206C44.5282 44.5926 44.5882 44.5926 44.6401 44.6206L48.3191 46.5541C48.6108 46.7098 48.9583 46.4582 48.9024 46.1266ZM48.6068 46.3344C48.5788 46.3543 48.5109 46.3943 48.423 46.3463L44.748 44.4129C44.688 44.381 44.6241 44.3649 44.5602 44.3649C44.4963 44.3649 44.4323 44.381 44.3724 44.4129L40.6974 46.3463C40.6095 46.3903 40.5416 46.3503 40.5136 46.3344C40.4856 46.3144 40.4257 46.2584 40.4457 46.1626L41.1408 42.072C41.1647 41.9402 41.1208 41.8084 41.0249 41.7125L38.0489 38.8124C37.977 38.7445 37.993 38.6646 38.0049 38.6326C38.0169 38.6007 38.0489 38.5288 38.1448 38.5128L42.2553 37.9136C42.3871 37.8936 42.5029 37.8097 42.5589 37.6939L44.3964 33.9669C44.4404 33.879 44.5202 33.871 44.5522 33.871C44.5842 33.871 44.6641 33.879 44.708 33.9669L46.5455 37.6939C46.6054 37.8137 46.7173 37.8976 46.8491 37.9136L50.9596 38.5128C51.0555 38.5288 51.0914 38.6007 51.0995 38.6326C51.1114 38.6646 51.1274 38.7445 51.0555 38.8124L48.1674 41.6286C48.0196 41.7725 47.9516 41.9841 47.9836 42.1878L48.6667 46.1626C48.6907 46.2624 48.6307 46.3183 48.6068 46.3344Z" fill="url(#paint12_radial_0_262)"/>
<defs>
<radialGradient id="paint0_radial_0_262" cx="0" cy="0" r="1" gradientUnits="userSpaceOnUse" gradientTransform="translate(44.2185 38.7707) scale(6.63648)">
<stop stop-color="#FFE343"/>
<stop offset="0.5492" stop-color="#FFE241"/>
<stop offset="0.7469" stop-color="#FFDF3A"/>
<stop offset="0.8874" stop-color="#FEDA2F"/>
<stop offset="1" stop-color="#FED31E"/>
</radialGradient>
<radialGradient id="paint1_radial_0_262" cx="0" cy="0" r="1" gradientUnits="userSpaceOnUse" gradientTransform="translate(39.3104 41.39) rotate(-39.4857) scale(1.22741 3.30505)">
<stop stop-color="#D86D00"/>
<stop offset="0.3292" stop-color="#DC6C0A" stop-opacity="0.6708"/>
<stop offset="0.8792" stop-color="#E86823" stop-opacity="0.1208"/>
<stop offset="1" stop-color="#EB672A" stop-opacity="0"/>
</radialGradient>
<radialGradient id="paint2_radial_0_262" cx="0" cy="0" r="1" gradientUnits="userSpaceOnUse" gradientTransform="translate(49.645 41.5694) rotate(-140.514) scale(1.22741 3.30505)">
<stop stop-color="#D86D00"/>
<stop offset="0.3292" stop-color="#DC6C0A" stop-opacity="0.6708"/>
<stop offset="0.8792" stop-color="#E86823" stop-opacity="0.1208"/>
<stop offset="1" stop-color="#EB672A" stop-opacity="0"/>
</radialGradient>
<radialGradient id="paint3_radial_0_262" cx="0" cy="0" r="1" gradientUnits="userSpaceOnUse" gradientTransform="translate(48.7715 35.007) rotate(46.8275) scale(4.80649 3.30828)">
<stop stop-color="#ED9900"/>
<stop offset="1" stop-color="#ED9900" stop-opacity="0"/>
</radialGradient>
<radialGradient id="paint4_radial_0_262" cx="0" cy="0" r="1" gradientUnits="userSpaceOnUse" gradientTransform="translate(44.0406 38.0673) rotate(-41.4123) scale(3.81832 2.09244)">
<stop stop-color="#FFEC5F"/>
<stop offset="1" stop-color="#FFEC5F" stop-opacity="0"/>
</radialGradient>
<radialGradient id="paint5_radial_0_262" cx="0" cy="0" r="1" gradientUnits="userSpaceOnUse" gradientTransform="translate(42.8953 46.5947) rotate(-26.3216) scale(3.64904 1.72938)">
<stop stop-color="#D86D00"/>
<stop offset="0.3292" stop-color="#DC6C0A" stop-opacity="0.6708"/>
<stop offset="0.8792" stop-color="#E86823" stop-opacity="0.1208"/>
<stop offset="1" stop-color="#EB672A" stop-opacity="0"/>
</radialGradient>
<radialGradient id="paint6_radial_0_262" cx="0" cy="0" r="1" gradientUnits="userSpaceOnUse" gradientTransform="translate(46.1766 46.6975) rotate(-153.678) scale(3.64904 1.72938)">
<stop stop-color="#D86D00"/>
<stop offset="0.3292" stop-color="#DC6C0A" stop-opacity="0.6708"/>
<stop offset="0.8792" stop-color="#E86823" stop-opacity="0.1208"/>
<stop offset="1" stop-color="#EB672A" stop-opacity="0"/>
</radialGradient>
<radialGradient id="paint7_radial_0_262" cx="0" cy="0" r="1" gradientUnits="userSpaceOnUse" gradientTransform="translate(44.5526 48.6407) rotate(177.226) scale(4.82715 4.94894)">
<stop stop-color="#D86D00"/>
<stop offset="0.3292" stop-color="#DC6C0A" stop-opacity="0.6708"/>
<stop offset="0.8792" stop-color="#E86823" stop-opacity="0.1208"/>
<stop offset="1" stop-color="#EB672A" stop-opacity="0"/>
</radialGradient>
<radialGradient id="paint8_radial_0_262" cx="0" cy="0" r="1" gradientUnits="userSpaceOnUse" gradientTransform="translate(46.1817 43.2995) rotate(158.456) scale(5.10089 3.856)">
<stop stop-color="#D86D00"/>
<stop offset="0.3292" stop-color="#DC6C0A" stop-opacity="0.6708"/>
<stop offset="0.8792" stop-color="#E86823" stop-opacity="0.1208"/>
<stop offset="1" stop-color="#EB672A" stop-opacity="0"/>
</radialGradient>
<radialGradient id="paint9_radial_0_262" cx="0" cy="0" r="1" gradientUnits="userSpaceOnUse" gradientTransform="translate(44.0241 38.609) rotate(158.456) scale(3.07333 2.32327)">
<stop stop-color="white"/>
<stop offset="1" stop-color="white" stop-opacity="0"/>
</radialGradient>
<radialGradient id="paint10_radial_0_262" cx="0" cy="0" r="1" gradientUnits="userSpaceOnUse" gradientTransform="translate(40.3427 35.0065) rotate(133.173) scale(4.80649 3.30828)">
<stop stop-color="#ED9900"/>
<stop offset="1" stop-color="#ED9900" stop-opacity="0"/>
</radialGradient>
<radialGradient id="paint11_radial_0_262" cx="0" cy="0" r="1" gradientUnits="userSpaceOnUse" gradientTransform="translate(44.6312 40.4593) scale(7.91251)">
<stop stop-color="#FF8000" stop-opacity="0"/>
<stop offset="0.5434" stop-color="#FD7F00" stop-opacity="0.5434"/>
<stop offset="0.7391" stop-color="#F67C00" stop-opacity="0.7391"/>
<stop offset="0.8781" stop-color="#EB7600" stop-opacity="0.8781"/>
<stop offset="0.9903" stop-color="#DA6E00" stop-opacity="0.9903"/>
<stop offset="1" stop-color="#D86D00"/>
</radialGradient>
<radialGradient id="paint12_radial_0_262" cx="0" cy="0" r="1" gradientUnits="userSpaceOnUse" gradientTransform="translate(44.5562 40.7146) scale(6.83738)">
<stop stop-color="#A3541E" stop-opacity="0.5"/>
<stop offset="0.5109" stop-color="#A5551D" stop-opacity="0.7555"/>
<stop offset="0.695" stop-color="#AC5819" stop-opacity="0.8475"/>
<stop offset="0.8261" stop-color="#B75E12" stop-opacity="0.9131"/>
<stop offset="0.9315" stop-color="#C86609" stop-opacity="0.9657"/>
<stop offset="1" stop-color="#D86D00"/>
</radialGradient>
</defs>
</svg>
