<svg width="20" height="23" viewBox="0 0 20 23" fill="none" xmlns="http://www.w3.org/2000/svg">
<path fill-rule="evenodd" clip-rule="evenodd" d="M2.70492 7.41667C2.70492 3.32056 5.97104 0 10 0C14.029 0 17.2951 3.32056 17.2951 7.41667V8.33334C17.2951 10.5339 17.589 12.4847 18.0369 13.8507C18.2626 14.539 18.5095 15.0238 18.7361 15.316C18.9038 15.5324 19.0039 15.5761 19.0268 15.5834C19.5652 15.5891 20 16.0346 20 16.5833V16.7917C20 17.344 19.5596 17.7917 19.0164 17.7917H0.983608C0.440371 17.7917 0 17.344 0 16.7917V16.5833C0 16.0346 0.434765 15.5891 0.973202 15.5834C0.996159 15.5761 1.09623 15.5324 1.26395 15.316C1.49047 15.0238 1.73748 14.539 1.96314 13.8507C2.41102 12.4847 2.70492 10.5339 2.70492 8.33334V7.41667ZM0.968106 15.5847L0.970762 15.5841L0.969208 15.5845L0.968106 15.5847Z" fill="#95959C"/>
<path d="M7.29506 19.5C6.9237 19.5 6.584 19.7126 6.41679 20.0497C6.24958 20.3869 6.28339 20.791 6.50417 21.0945C7.32265 22.2199 8.55906 23 9.99995 23C11.4408 23 12.6773 22.2199 13.4958 21.0945C13.7166 20.791 13.7503 20.3869 13.5831 20.0497C13.4159 19.7126 13.0763 19.5 12.7049 19.5H7.29506Z" fill="#95959C"/>
</svg>
