<svg width="60" height="59" viewBox="0 0 60 59" fill="none" xmlns="http://www.w3.org/2000/svg">
<circle cx="30.043" cy="29.5" r="29.5" fill="black"/>
<path d="M41.543 35.0807C40.943 36.432 40.653 37.0416 39.883 38.2303C38.803 39.8966 37.2831 41.9794 35.3931 41.9997C33.7132 42.02 33.2832 40.8923 31.0132 40.9024C28.7433 40.9126 28.2633 42.02 26.5834 41.9997C24.6934 41.9794 23.2534 40.0998 22.1735 38.4335C19.1536 33.7599 18.8336 28.2836 20.7035 25.3676C22.0235 23.295 24.1134 22.0859 26.0834 22.0859C28.0833 22.0859 29.3333 23.2035 30.9932 23.2035C32.5932 23.2035 33.5732 22.0859 35.8831 22.0859C37.6331 22.0859 39.483 23.0511 40.803 24.7275C36.4731 27.1355 37.1731 33.4043 41.543 35.0807ZM34.1232 20.2266C34.9631 19.1293 35.6031 17.585 35.3731 16C34.0032 16.0914 32.3932 16.9855 31.4632 18.1438C30.6133 19.1903 29.9133 20.7448 30.1833 22.2586C31.6732 22.3094 33.2232 21.395 34.1232 20.2266Z" fill="white"/>
</svg>
