<svg width="60" height="59" viewBox="0 0 60 59" fill="none" xmlns="http://www.w3.org/2000/svg">
<circle cx="29.543" cy="29.5" r="28" fill="#353544" stroke="#454552" stroke-width="3"/>
<path d="M18.5649 17.0061C18.2545 17.1104 17.9867 17.3135 17.8026 17.5843C17.6184 17.8551 17.5279 18.1787 17.545 18.5057V39.5004C17.545 39.8981 17.703 40.2795 17.9843 40.5608C18.2656 40.842 18.6471 41 19.0449 41H40.0431C40.4409 41 40.8224 40.842 41.1037 40.5608C41.3849 40.2795 41.543 39.8981 41.543 39.5004V18.5057C41.543 18.108 41.3849 17.7265 41.1037 17.4453C40.8224 17.1641 40.4409 17.0061 40.0431 17.0061L19.0449 17.0061C18.9551 16.998 18.8647 16.998 18.7749 17.0061C18.715 17.0025 18.6549 17.0025 18.5949 17.0061L18.5649 17.0061ZM22.0446 20.0053C22.8846 20.0053 23.5445 20.6652 23.5445 21.5049C23.5445 22.3447 22.8846 23.0046 22.0446 23.0046C21.2047 23.0046 20.5448 22.3447 20.5448 21.5049C20.5448 20.6652 21.2047 20.0053 22.0446 20.0053ZM28.0441 20.0053H37.0434C37.8833 20.0053 38.5432 20.6652 38.5432 21.5049C38.5432 22.3447 37.8833 23.0046 37.0434 23.0046H28.0441C27.2042 23.0046 26.5442 22.3447 26.5442 21.5049C26.5442 20.6652 27.2042 20.0053 28.0441 20.0053ZM20.5448 26.0038H38.5432V38.0008H20.5448V26.0038Z" fill="#95959C"/>
</svg>
