<svg width="22" height="22" viewBox="0 0 22 22" fill="none" xmlns="http://www.w3.org/2000/svg">
<path d="M11 22C17.0751 22 22 17.0751 22 11C22 4.92487 17.0751 0 11 0C4.92487 0 0 4.92487 0 11C0 17.0751 4.92487 22 11 22Z" fill="url(#paint0_linear_35_2055)"/>
<path d="M10.9999 20.0001C6.0372 20.0001 1.99988 15.9626 1.99988 11.0001C1.99988 6.0376 6.0372 2.00011 10.9999 2.00011C15.9626 2.00011 19.9999 6.03765 19.9999 11.0001C19.9999 15.9626 15.9626 20.0001 10.9999 20.0001Z" fill="#2C2C3A"/>
<path d="M10.7066 16.5291V15.5554C9.48808 15.4306 8.39439 14.9465 7.42505 14.1008L8.39878 12.9404C9.14612 13.5896 9.91522 13.9771 10.7066 14.1008V11.513C9.70141 11.2731 8.96597 10.9583 8.49922 10.5664C8.03247 10.1756 7.79856 9.59488 7.79856 8.82525C7.79856 8.05669 8.06774 7.42711 8.60566 6.93865C9.14348 6.44907 9.84423 6.18204 10.7067 6.13755V5.47109H11.5604V6.15169C12.5384 6.22223 13.4633 6.55658 14.335 7.15143L13.4676 8.37913C12.8809 7.96122 12.2448 7.70291 11.5604 7.60516V10.1127H11.6005C12.6231 10.3526 13.3742 10.6783 13.8546 11.0864C14.3349 11.4956 14.5748 12.0894 14.5748 12.8677C14.5748 13.646 14.2991 14.2789 13.7477 14.7685C13.1962 15.257 12.4673 15.524 11.5603 15.5685V16.5291H10.7066ZM9.76595 7.91887C9.53965 8.11859 9.42618 8.36826 9.42618 8.66572C9.42618 8.96422 9.51463 9.19867 9.69268 9.37238C9.87073 9.54605 10.2083 9.71322 10.7066 9.87283V7.56505C10.3065 7.60086 9.99283 7.71916 9.76595 7.91887ZM12.5742 13.7676C12.8227 13.5635 12.9476 13.3051 12.9476 12.9936C12.9476 12.6831 12.8493 12.4356 12.6539 12.2533C12.4586 12.072 12.0938 11.9005 11.5603 11.7398V14.141C11.9869 14.0965 12.3251 13.9728 12.5742 13.7676Z" fill="url(#paint1_linear_35_2055)"/>
<defs>
<linearGradient id="paint0_linear_35_2055" x1="5.4482" y1="16.7124" x2="20.2945" y2="3.61052" gradientUnits="userSpaceOnUse">
<stop stop-color="#5A45D1"/>
<stop offset="1" stop-color="#BA6AFF"/>
</linearGradient>
<linearGradient id="paint1_linear_35_2055" x1="5.4482" y1="16.7124" x2="20.2945" y2="3.61052" gradientUnits="userSpaceOnUse">
<stop stop-color="#5A45D1"/>
<stop offset="1" stop-color="#BA6AFF"/>
</linearGradient>
</defs>
</svg>
