<svg width="21" height="20" viewBox="0 0 21 20" fill="none" xmlns="http://www.w3.org/2000/svg">
<path d="M17.243 7.3551H9.88789C8.98519 7.3551 8.25342 8.08688 8.25342 8.98957V16.3447C8.25342 17.2474 8.98519 17.9791 9.88789 17.9791H17.243C18.1457 17.9791 18.8775 17.2474 18.8775 16.3447V8.98957C18.8775 8.08688 18.1457 7.3551 17.243 7.3551Z" stroke="white" stroke-width="1.63447" stroke-linecap="round" stroke-linejoin="round"/>
<path d="M4.98442 12.2586H4.16718C3.73369 12.2586 3.31796 12.0864 3.01144 11.7798C2.70492 11.4733 2.53271 11.0576 2.53271 10.6241V3.26899C2.53271 2.8355 2.70492 2.41977 3.01144 2.11325C3.31796 1.80672 3.73369 1.63452 4.16718 1.63452H11.5223C11.9558 1.63452 12.3715 1.80672 12.678 2.11325C12.9846 2.41977 13.1568 2.8355 13.1568 3.26899V4.08622" stroke="white" stroke-width="1.63447" stroke-linecap="round" stroke-linejoin="round"/>
</svg>
