<svg width="60" height="59" viewBox="0 0 60 59" fill="none" xmlns="http://www.w3.org/2000/svg">
<circle cx="30.043" cy="29.5" r="28" fill="#353544" stroke="#454552" stroke-width="3"/>
<path fill-rule="evenodd" clip-rule="evenodd" d="M27.0964 20H33.9895C35.5324 20 36.7761 20 37.7542 20.1278C38.7697 20.2605 39.6247 20.5445 40.3038 21.2046C40.9829 21.8648 41.275 22.696 41.4115 23.6832C41.543 24.6341 41.543 25.8431 41.543 27.343V29.657C41.543 31.1569 41.543 32.3659 41.4115 33.3168C41.275 34.304 40.9829 35.1352 40.3038 35.7954C39.6247 36.4556 38.7697 36.7395 37.7542 36.8722C36.7761 37 35.5324 37 33.9895 37H27.0964C25.5535 37 24.3099 37 23.3317 36.8722C22.3162 36.7395 21.4613 36.4556 20.7821 35.7954C20.103 35.1352 19.8109 34.304 19.6744 33.3168C19.543 32.3659 19.543 31.1569 19.543 29.657V27.343C19.543 25.8431 19.543 24.6341 19.6744 23.6832C19.8109 22.696 20.103 21.8648 20.7821 21.2046C21.4613 20.5445 22.3162 20.2605 23.3317 20.1278C24.3099 20 25.5535 20 27.0964 20ZM36.9338 24.4739C37.3518 24.2708 37.86 24.4355 38.069 24.8418C38.278 25.2481 38.1086 25.7422 37.6906 25.9454L31.9304 28.7452C31.057 29.1698 30.029 29.1698 29.1555 28.7452L23.3953 25.9454C22.9773 25.7422 22.8079 25.2481 23.0169 24.8418C23.2259 24.4355 23.7341 24.2708 24.1521 24.4739L29.9123 27.2738C30.3093 27.4667 30.7766 27.4667 31.1736 27.2738L36.9338 24.4739Z" fill="#95959C"/>
</svg>
