<svg width="24" height="24" viewBox="0 0 24 24" fill="none" xmlns="http://www.w3.org/2000/svg">
<path d="M12 18C10.485 18 9.327 17.244 8.5995 16.5825C8.29088 16.3011 8.00778 15.9929 7.7535 15.6615C7.63902 15.5151 7.53285 15.3623 7.4355 15.204C7.28765 14.9489 7.2459 14.6459 7.31922 14.3602C7.39255 14.0746 7.57509 13.8292 7.82755 13.6768C8.08001 13.5244 8.38221 13.4773 8.6691 13.5455C8.95599 13.6137 9.20463 13.7918 9.3615 14.0415C9.57555 14.3625 9.82735 14.6566 10.1115 14.9175C10.623 15.3825 11.265 15.75 12 15.75C12.735 15.75 13.377 15.381 13.887 14.9175C14.1711 14.6566 14.423 14.3625 14.637 14.0415C14.7912 13.7859 15.0405 13.602 15.3303 13.5303C15.62 13.4585 15.9264 13.5048 16.182 13.659C16.4376 13.8132 16.6215 14.0625 16.6932 14.3523C16.765 14.642 16.7187 14.9484 16.5645 15.204L16.2465 15.6615C16.0545 15.912 15.771 16.2465 15.4005 16.5825C14.673 17.2425 13.515 18 12 18ZM7.5 9C7.5 8.60217 7.65803 8.22064 7.93934 7.93934C8.22064 7.65804 8.60217 7.5 9 7.5H9.0105C9.40832 7.5 9.78986 7.65804 10.0712 7.93934C10.3525 8.22064 10.5105 8.60217 10.5105 9C10.5105 9.39782 10.3525 9.77936 10.0712 10.0607C9.78986 10.342 9.40832 10.5 9.0105 10.5H9C8.60217 10.5 8.22064 10.342 7.93934 10.0607C7.65803 9.77936 7.5 9.39782 7.5 9ZM15 7.5C14.6022 7.5 14.2206 7.65804 13.9393 7.93934C13.658 8.22064 13.5 8.60217 13.5 9C13.5 9.39782 13.658 9.77936 13.9393 10.0607C14.2206 10.342 14.6022 10.5 15 10.5H15.0105C15.4083 10.5 15.7899 10.342 16.0712 10.0607C16.3525 9.77936 16.5105 9.39782 16.5105 9C16.5105 8.60217 16.3525 8.22064 16.0712 7.93934C15.7899 7.65804 15.4083 7.5 15.0105 7.5H15Z" fill="#95959C"/>
<path fill-rule="evenodd" clip-rule="evenodd" d="M12 0C8.8174 0 5.76516 1.26428 3.51472 3.51472C1.26428 5.76516 0 8.8174 0 12C0 15.1826 1.26428 18.2348 3.51472 20.4853C5.76516 22.7357 8.8174 24 12 24C15.1826 24 18.2348 22.7357 20.4853 20.4853C22.7357 18.2348 24 15.1826 24 12C24 8.8174 22.7357 5.76516 20.4853 3.51472C18.2348 1.26428 15.1826 0 12 0ZM2.25 12C2.25 9.41414 3.27723 6.93419 5.10571 5.10571C6.93419 3.27723 9.41414 2.25 12 2.25C14.5859 2.25 17.0658 3.27723 18.8943 5.10571C20.7228 6.93419 21.75 9.41414 21.75 12C21.75 14.5859 20.7228 17.0658 18.8943 18.8943C17.0658 20.7228 14.5859 21.75 12 21.75C9.41414 21.75 6.93419 20.7228 5.10571 18.8943C3.27723 17.0658 2.25 14.5859 2.25 12Z" fill="#95959C"/>
</svg>
