<svg width="30" height="30" viewBox="0 0 30 30" fill="none" xmlns="http://www.w3.org/2000/svg">
<path d="M30 15.3445C30 14.3245 29.9152 13.3001 29.737 12.2973H15.302V18.0724H23.5673C23.3968 18.9966 23.0378 19.8771 22.512 20.6606C21.9863 21.444 21.3047 22.1142 20.5086 22.6305V26.3806H25.4413C28.3369 23.7662 30 19.9089 30 15.3445Z" fill="#4285F4"/>
<path d="M15.3042 30C19.4303 30 22.9108 28.6714 25.4456 26.3784L20.5151 22.6305C19.1434 23.5455 17.3716 24.0641 15.3086 24.0641C11.3172 24.0641 7.9324 21.424 6.71717 17.8753H1.63017V21.739C2.91192 24.2274 4.86843 26.3169 7.28233 27.7752C9.69623 29.2335 12.473 30.0036 15.3042 30Z" fill="#34A853"/>
<path d="M6.71065 17.8753C6.06959 16.0131 6.06959 13.9945 6.71065 12.1323V8.26855H1.62799C0.557646 10.3569 0 12.664 0 15.0038C0 17.3436 0.557646 19.6506 1.62799 21.739L6.71065 17.8753Z" fill="#FBBC04"/>
<path d="M15.3042 5.9349C17.4839 5.90007 19.5907 6.70772 21.1738 8.18498L25.5434 3.90126C22.7664 1.35131 19.0992 -0.0455335 15.3042 0.00113271C12.4722 -0.00240404 9.69478 0.768472 7.28072 2.22803C4.86666 3.68758 2.91063 5.77861 1.63017 8.26855L6.70848 12.128C7.91718 8.57499 11.3085 5.9349 15.2999 5.9349H15.3042Z" fill="#EA4335"/>
</svg>
