<svg width="60" height="59" viewBox="0 0 60 59" fill="none" xmlns="http://www.w3.org/2000/svg">
<circle cx="30.043" cy="29.5" r="29.5" fill="white"/>
<path d="M42.543 29.2756C42.543 28.4596 42.4751 27.6401 42.3325 26.8378H30.7846V31.458H37.3968C37.2604 32.1973 36.9732 32.9017 36.5526 33.5285C36.132 34.1552 35.5868 34.6913 34.9499 35.1044V38.1045H38.896C41.2125 36.013 42.543 32.9271 42.543 29.2756Z" fill="#4285F4"/>
<path d="M30.7863 41C34.0872 41 36.8716 39.9371 38.8995 38.1028L34.9551 35.1044C33.8577 35.8364 32.4403 36.2513 30.7898 36.2513C27.5967 36.2513 24.8889 34.1392 23.9167 31.3002H19.8471V34.3912C20.8725 36.3819 22.4377 38.0535 24.3688 39.2202C26.3 40.3868 28.5214 41.0029 30.7863 41Z" fill="#34A853"/>
<path d="M23.9115 31.3002C23.3986 29.8105 23.3986 28.1956 23.9115 26.7058V23.6148H19.8454C18.9891 25.2856 18.543 27.1312 18.543 29.003C18.543 30.8748 18.9891 32.7205 19.8454 34.3912L23.9115 31.3002Z" fill="#FBBC04"/>
<path d="M30.7863 21.7479C32.5301 21.7201 34.2156 22.3662 35.482 23.548L38.9777 20.121C36.7561 18.081 33.8223 16.9636 30.7863 17.0009C28.5208 16.9981 26.2988 17.6148 24.3675 18.7824C22.4363 19.9501 20.8715 21.6229 19.8471 23.6148L23.9098 26.7024C24.8767 23.86 27.5898 21.7479 30.7829 21.7479H30.7863Z" fill="#EA4335"/>
</svg>
