<svg width="20" height="19" viewBox="0 0 20 19" fill="none" xmlns="http://www.w3.org/2000/svg">
<path d="M10.3477 0.452731L13.0059 5.84426C13.0406 5.91938 13.1157 5.97139 13.1966 5.98295L19.1429 6.84975C19.6225 6.91909 19.8133 7.50851 19.4665 7.84951L15.2885 11.9177C15.1498 12.0505 15.0863 12.247 15.121 12.4378L16.1091 18.1876C16.19 18.6672 15.6873 19.0313 15.2596 18.8058L9.93748 16.009C9.86234 15.9685 9.77567 15.9685 9.70053 16.009L4.37833 18.8058C3.9507 19.0313 3.44796 18.6672 3.52886 18.1876L4.55169 12.2644C4.56325 12.1835 4.54013 12.0969 4.47656 12.039L0.177207 7.84365C-0.169507 7.50275 0.0211881 6.91332 0.500815 6.84397L6.4471 5.97716C6.528 5.96561 6.60313 5.9136 6.6378 5.83848L9.29602 0.446946C9.50981 0.0193295 10.1339 0.0193296 10.3477 0.452731Z" fill="url(#paint0_radial_456_26452)"/>
<path d="M3.29771 9.67644C2.18242 8.56121 0.604834 7.28986 0.934226 6.78711L0.500815 6.85068C0.0211881 6.92002 -0.169507 7.50948 0.177207 7.85038L4.48235 12.0457C4.54013 12.1035 4.56902 12.1902 4.55746 12.2711C4.70771 11.2193 4.41299 10.786 3.29771 9.67644Z" fill="url(#paint1_radial_456_26452)"/>
<path d="M16.343 9.67644C17.4584 8.56121 19.036 7.28986 18.7065 6.78711L19.1399 6.85068C19.6196 6.92002 19.8103 7.50948 19.4635 7.85038L15.1584 12.0457C15.1006 12.1035 15.0718 12.1902 15.0833 12.2711C14.933 11.2193 15.2277 10.786 16.343 9.67644Z" fill="url(#paint2_radial_456_26452)"/>
<path d="M19.1456 6.85014L13.1993 5.98334C13.1184 5.97178 13.0432 5.91977 13.0085 5.84465L10.3503 0.453125C10.3503 0.453125 10.1076 0.753615 10.6566 1.8978C11.0149 2.64325 11.9568 4.70047 12.4712 5.76375C12.7601 6.36473 13.1993 6.37629 13.8638 6.46298L18.2556 7.02351C18.2499 7.02929 18.7353 7.06974 19.1456 6.85014Z" fill="url(#paint3_radial_456_26452)"/>
<path d="M10.3477 0.452731L13.0059 5.84426C13.0406 5.91938 13.1157 5.97139 13.1966 5.98295L19.1429 6.84975C19.6225 6.91909 19.8133 7.50851 19.4665 7.84951L15.2885 11.9177C15.1498 12.0505 15.0863 12.247 15.121 12.4378L16.1091 18.1876C16.19 18.6672 15.6873 19.0313 15.2596 18.8058L9.93748 16.009C9.86234 15.9685 9.77567 15.9685 9.70053 16.009L4.37833 18.8058C3.9507 19.0313 3.44796 18.6672 3.52886 18.1876L4.55169 12.2644C4.56325 12.1835 4.54013 12.0969 4.47656 12.039L0.177207 7.84365C-0.169507 7.50275 0.0211881 6.91332 0.500815 6.84397L6.4471 5.97716C6.528 5.96561 6.60313 5.9136 6.6378 5.83848L9.29602 0.446946C9.50981 0.0193295 10.1339 0.0193296 10.3477 0.452731Z" fill="url(#paint4_radial_456_26452)"/>
<path d="M10.3477 0.452731L13.0059 5.84426C13.0406 5.91938 13.1157 5.97139 13.1966 5.98295L19.1429 6.84975C19.6225 6.91909 19.8133 7.50851 19.4665 7.84951L15.2885 11.9177C15.1498 12.0505 15.0863 12.247 15.121 12.4378L16.1091 18.1876C16.19 18.6672 15.6873 19.0313 15.2596 18.8058L9.93748 16.009C9.86234 15.9685 9.77567 15.9685 9.70053 16.009L4.37833 18.8058C3.9507 19.0313 3.44796 18.6672 3.52886 18.1876L4.55169 12.2644C4.56325 12.1835 4.54013 12.0969 4.47656 12.039L0.177207 7.84365C-0.169507 7.50275 0.0211881 6.91332 0.500815 6.84397L6.4471 5.97716C6.528 5.96561 6.60313 5.9136 6.6378 5.83848L9.29602 0.446946C9.50981 0.0193295 10.1339 0.0193296 10.3477 0.452731Z" fill="url(#paint5_radial_456_26452)"/>
<path d="M9.29603 0.452731L6.6378 5.84426C6.60313 5.91938 6.528 5.97139 6.4471 5.98295L0.500815 6.84975C0.0211881 6.91909 -0.169508 7.50851 0.177207 7.84951L4.35521 11.9177C4.49391 12.0505 4.55746 12.247 4.5228 12.4378L3.53463 18.1876C3.45373 18.6672 3.95649 19.0313 4.3841 18.8058L9.7063 16.009C9.78144 15.9685 9.8681 15.9685 9.94324 16.009L15.2654 18.8058C15.693 19.0313 16.1957 18.6672 16.1148 18.1876L15.092 12.2644C15.0805 12.1835 15.1036 12.0969 15.1672 12.039L19.4723 7.84365C19.819 7.50275 19.6283 6.91332 19.1487 6.84397L13.2024 5.97716C13.1215 5.96561 13.0463 5.9136 13.0117 5.83848L10.3535 0.446946C10.1339 0.0193295 9.50981 0.0193296 9.29603 0.452731Z" fill="url(#paint6_radial_456_26452)"/>
<path d="M9.29603 0.452731L6.6378 5.84426C6.60313 5.91938 6.528 5.97139 6.4471 5.98295L0.500815 6.84975C0.0211881 6.91909 -0.169508 7.50851 0.177207 7.84951L4.35521 11.9177C4.49391 12.0505 4.55746 12.247 4.5228 12.4378L3.53463 18.1876C3.45373 18.6672 3.95649 19.0313 4.3841 18.8058L9.7063 16.009C9.78144 15.9685 9.8681 15.9685 9.94324 16.009L15.2654 18.8058C15.693 19.0313 16.1957 18.6672 16.1148 18.1876L15.092 12.2644C15.0805 12.1835 15.1036 12.0969 15.1672 12.039L19.4723 7.84365C19.819 7.50275 19.6283 6.91332 19.1487 6.84397L13.2024 5.97716C13.1215 5.96561 13.0463 5.9136 13.0117 5.83848L10.3535 0.446946C10.1339 0.0193295 9.50981 0.0193296 9.29603 0.452731Z" fill="url(#paint7_radial_456_26452)"/>
<path opacity="0.24" d="M9.29603 0.452731L6.6378 5.84426C6.60313 5.91938 6.528 5.97139 6.4471 5.98295L0.500815 6.84975C0.0211881 6.91909 -0.169508 7.50851 0.177207 7.84951L4.35521 11.9177C4.49391 12.0505 4.55746 12.247 4.5228 12.4378L3.53463 18.1876C3.45373 18.6672 3.95649 19.0313 4.3841 18.8058L9.7063 16.009C9.78144 15.9685 9.8681 15.9685 9.94324 16.009L15.2654 18.8058C15.693 19.0313 16.1957 18.6672 16.1148 18.1876L15.092 12.2644C15.0805 12.1835 15.1036 12.0969 15.1672 12.039L19.4723 7.84365C19.819 7.50275 19.6283 6.91332 19.1487 6.84397L13.2024 5.97716C13.1215 5.96561 13.0463 5.9136 13.0117 5.83848L10.3535 0.446946C10.1339 0.0193295 9.50981 0.0193296 9.29603 0.452731Z" fill="url(#paint8_radial_456_26452)"/>
<path opacity="0.24" d="M9.29603 0.452731L6.6378 5.84426C6.60313 5.91938 6.528 5.97139 6.4471 5.98295L0.500815 6.84975C0.0211881 6.91909 -0.169508 7.50851 0.177207 7.84951L4.35521 11.9177C4.49391 12.0505 4.55746 12.247 4.5228 12.4378L3.53463 18.1876C3.45373 18.6672 3.95649 19.0313 4.3841 18.8058L9.7063 16.009C9.78144 15.9685 9.8681 15.9685 9.94324 16.009L15.2654 18.8058C15.693 19.0313 16.1957 18.6672 16.1148 18.1876L15.092 12.2644C15.0805 12.1835 15.1036 12.0969 15.1672 12.039L19.4723 7.84365C19.819 7.50275 19.6283 6.91332 19.1487 6.84397L13.2024 5.97716C13.1215 5.96561 13.0463 5.9136 13.0117 5.83848L10.3535 0.446946C10.1339 0.0193295 9.50981 0.0193296 9.29603 0.452731Z" fill="url(#paint9_radial_456_26452)"/>
<path d="M0.5 6.85014L6.44629 5.98334C6.5272 5.97178 6.60231 5.91977 6.63699 5.84465L9.29523 0.453125C9.29523 0.453125 9.53794 0.753615 8.98892 1.8978C8.63062 2.64325 7.68871 4.70047 7.17441 5.76375C6.88547 6.36473 6.44629 6.37629 5.78174 6.46298L1.38992 7.02351C1.3957 7.02929 0.910294 7.06974 0.5 6.85014Z" fill="url(#paint10_radial_456_26452)"/>
<path opacity="0.5" d="M10.3477 0.452731L13.0059 5.84426C13.0406 5.91938 13.1157 5.97139 13.1966 5.98295L19.1429 6.84975C19.6225 6.91909 19.8133 7.50851 19.4665 7.84951L15.2885 11.9177C15.1498 12.0505 15.0863 12.247 15.121 12.4378L16.1091 18.1876C16.19 18.6672 15.6873 19.0313 15.2596 18.8058L9.93748 16.009C9.86234 15.9685 9.77567 15.9685 9.70053 16.009L4.37833 18.8058C3.9507 19.0313 3.44796 18.6672 3.52886 18.1876L4.55169 12.2644C4.56325 12.1835 4.54013 12.0969 4.47656 12.039L0.177207 7.84365C-0.169507 7.50275 0.0211881 6.91332 0.500815 6.84397L6.4471 5.97716C6.528 5.96561 6.60313 5.9136 6.6378 5.83848L9.29602 0.446946C9.50981 0.0193295 10.1339 0.0193296 10.3477 0.452731Z" fill="url(#paint11_radial_456_26452)"/>
<path d="M16.1091 18.1887L15.121 12.4389C15.0863 12.2482 15.1498 12.0575 15.2885 11.9188L19.4665 7.84488C19.8133 7.50388 19.6225 6.91446 19.1429 6.84512L13.1966 5.97831C13.1157 5.96675 13.0406 5.91474 13.0059 5.83963L10.3477 0.448098C10.1339 0.0146966 9.51557 0.0146966 9.29602 0.448098L6.6378 5.83963C6.60313 5.91474 6.528 5.96675 6.4471 5.97831L0.500815 6.84512C0.0211881 6.91446 -0.169507 7.50388 0.177207 7.84488L4.48235 12.0401C4.54013 12.098 4.56902 12.1847 4.55746 12.2656L3.53463 18.1887C3.45373 18.6683 3.95648 19.0324 4.3841 18.8071L9.7063 16.0101C9.78144 15.9696 9.8681 15.9696 9.94324 16.0101L15.2654 18.8071C15.6873 19.0324 16.19 18.6683 16.1091 18.1887ZM15.6815 18.4892C15.6411 18.5181 15.5428 18.5759 15.4156 18.5065L10.0993 15.7096C10.0125 15.6634 9.92008 15.6403 9.82765 15.6403C9.73522 15.6403 9.64269 15.6634 9.55602 15.7096L4.23964 18.5065C4.1125 18.5701 4.01427 18.5123 3.97382 18.4892C3.93337 18.4603 3.84669 18.3794 3.87558 18.2408L4.88107 12.3233C4.91575 12.1327 4.85218 11.9419 4.71349 11.8032L0.408364 7.60794C0.304345 7.50964 0.327462 7.39409 0.344795 7.34787C0.362129 7.30163 0.408364 7.19761 0.54705 7.17451L6.49333 6.30769C6.68403 6.2788 6.85161 6.15745 6.93251 5.98987L9.59071 0.598343C9.65432 0.471215 9.76981 0.459657 9.81612 0.459657C9.86234 0.459657 9.97793 0.471215 10.0414 0.598343L12.6997 5.98987C12.7863 6.16323 12.9481 6.28459 13.1389 6.30769L19.0851 7.17451C19.2238 7.19761 19.2758 7.30163 19.2874 7.34787C19.3047 7.39409 19.3279 7.50964 19.2238 7.60794L15.0458 11.6819C14.832 11.89 14.7337 12.1962 14.78 12.4909L15.7682 18.2408C15.8029 18.3852 15.7161 18.4661 15.6815 18.4892Z" fill="url(#paint12_radial_456_26452)"/>
<defs>
<radialGradient id="paint0_radial_456_26452" cx="0" cy="0" r="1" gradientUnits="userSpaceOnUse" gradientTransform="translate(9.33334 7.54664) scale(9.60038)">
<stop stop-color="#FFE343"/>
<stop offset="0.5492" stop-color="#FFE241"/>
<stop offset="0.7469" stop-color="#FFDF3A"/>
<stop offset="0.8874" stop-color="#FEDA2F"/>
<stop offset="1" stop-color="#FED31E"/>
</radialGradient>
<radialGradient id="paint1_radial_456_26452" cx="0" cy="0" r="1" gradientUnits="userSpaceOnUse" gradientTransform="translate(2.23329 11.3366) rotate(-39.4857) scale(1.77558 4.78111)">
<stop stop-color="#D86D00"/>
<stop offset="0.3292" stop-color="#DC6C0A" stop-opacity="0.6708"/>
<stop offset="0.8792" stop-color="#E86823" stop-opacity="0.1208"/>
<stop offset="1" stop-color="#EB672A" stop-opacity="0"/>
</radialGradient>
<radialGradient id="paint2_radial_456_26452" cx="0" cy="0" r="1" gradientUnits="userSpaceOnUse" gradientTransform="translate(17.1822 11.5962) rotate(-140.514) scale(1.77558 4.78111)">
<stop stop-color="#D86D00"/>
<stop offset="0.3292" stop-color="#DC6C0A" stop-opacity="0.6708"/>
<stop offset="0.8792" stop-color="#E86823" stop-opacity="0.1208"/>
<stop offset="1" stop-color="#EB672A" stop-opacity="0"/>
</radialGradient>
<radialGradient id="paint3_radial_456_26452" cx="0" cy="0" r="1" gradientUnits="userSpaceOnUse" gradientTransform="translate(15.9208 2.10214) rotate(46.8275) scale(6.95311 4.78578)">
<stop stop-color="#ED9900"/>
<stop offset="1" stop-color="#ED9900" stop-opacity="0"/>
</radialGradient>
<radialGradient id="paint4_radial_456_26452" cx="0" cy="0" r="1" gradientUnits="userSpaceOnUse" gradientTransform="translate(9.07597 6.52906) rotate(-41.4123) scale(5.5236 3.02693)">
<stop stop-color="#FFEC5F"/>
<stop offset="1" stop-color="#FFEC5F" stop-opacity="0"/>
</radialGradient>
<radialGradient id="paint5_radial_456_26452" cx="0" cy="0" r="1" gradientUnits="userSpaceOnUse" gradientTransform="translate(7.41919 18.8648) rotate(-26.3216) scale(5.27873 2.50174)">
<stop stop-color="#D86D00"/>
<stop offset="0.3292" stop-color="#DC6C0A" stop-opacity="0.6708"/>
<stop offset="0.8792" stop-color="#E86823" stop-opacity="0.1208"/>
<stop offset="1" stop-color="#EB672A" stop-opacity="0"/>
</radialGradient>
<radialGradient id="paint6_radial_456_26452" cx="0" cy="0" r="1" gradientUnits="userSpaceOnUse" gradientTransform="translate(12.1659 19.0136) rotate(-153.678) scale(5.27873 2.50174)">
<stop stop-color="#D86D00"/>
<stop offset="0.3292" stop-color="#DC6C0A" stop-opacity="0.6708"/>
<stop offset="0.8792" stop-color="#E86823" stop-opacity="0.1208"/>
<stop offset="1" stop-color="#EB672A" stop-opacity="0"/>
</radialGradient>
<radialGradient id="paint7_radial_456_26452" cx="0" cy="0" r="1" gradientUnits="userSpaceOnUse" gradientTransform="translate(9.81663 21.8246) rotate(177.226) scale(6.98298 7.15916)">
<stop stop-color="#D86D00"/>
<stop offset="0.3292" stop-color="#DC6C0A" stop-opacity="0.6708"/>
<stop offset="0.8792" stop-color="#E86823" stop-opacity="0.1208"/>
<stop offset="1" stop-color="#EB672A" stop-opacity="0"/>
</radialGradient>
<radialGradient id="paint8_radial_456_26452" cx="0" cy="0" r="1" gradientUnits="userSpaceOnUse" gradientTransform="translate(12.1734 14.098) rotate(158.456) scale(7.37898 5.57812)">
<stop stop-color="#D86D00"/>
<stop offset="0.3292" stop-color="#DC6C0A" stop-opacity="0.6708"/>
<stop offset="0.8792" stop-color="#E86823" stop-opacity="0.1208"/>
<stop offset="1" stop-color="#EB672A" stop-opacity="0"/>
</radialGradient>
<radialGradient id="paint9_radial_456_26452" cx="0" cy="0" r="1" gradientUnits="userSpaceOnUse" gradientTransform="translate(9.05211 7.31267) rotate(158.456) scale(4.4459 3.36086)">
<stop stop-color="white"/>
<stop offset="1" stop-color="white" stop-opacity="0"/>
</radialGradient>
<radialGradient id="paint10_radial_456_26452" cx="0" cy="0" r="1" gradientUnits="userSpaceOnUse" gradientTransform="translate(3.72502 2.10139) rotate(133.173) scale(6.95311 4.78578)">
<stop stop-color="#ED9900"/>
<stop offset="1" stop-color="#ED9900" stop-opacity="0"/>
</radialGradient>
<radialGradient id="paint11_radial_456_26452" cx="0" cy="0" r="1" gradientUnits="userSpaceOnUse" gradientTransform="translate(9.9304 9.98926) scale(11.4463)">
<stop stop-color="#FF8000" stop-opacity="0"/>
<stop offset="0.5434" stop-color="#FD7F00" stop-opacity="0.5434"/>
<stop offset="0.7391" stop-color="#F67C00" stop-opacity="0.7391"/>
<stop offset="0.8781" stop-color="#EB7600" stop-opacity="0.8781"/>
<stop offset="0.9903" stop-color="#DA6E00" stop-opacity="0.9903"/>
<stop offset="1" stop-color="#D86D00"/>
</radialGradient>
<radialGradient id="paint12_radial_456_26452" cx="0" cy="0" r="1" gradientUnits="userSpaceOnUse" gradientTransform="translate(9.82189 10.3597) scale(9.891 9.89099)">
<stop stop-color="#A3541E" stop-opacity="0.5"/>
<stop offset="0.5109" stop-color="#A5551D" stop-opacity="0.7555"/>
<stop offset="0.695" stop-color="#AC5819" stop-opacity="0.8475"/>
<stop offset="0.8261" stop-color="#B75E12" stop-opacity="0.9131"/>
<stop offset="0.9315" stop-color="#C86609" stop-opacity="0.9657"/>
<stop offset="1" stop-color="#D86D00"/>
</radialGradient>
</defs>
</svg>
