<svg width="22" height="22" viewBox="0 0 22 22" fill="none" xmlns="http://www.w3.org/2000/svg">
<path d="M11.4145 13.57V13.668H9.16053V13.164C9.16053 12.6693 9.24453 12.3053 9.41253 12.072C9.58053 11.8293 9.88853 11.5867 10.3365 11.344L11.2885 10.784C11.8112 10.4853 12.0725 10.1213 12.0725 9.692C12.0725 9.06667 11.7272 8.754 11.0365 8.754C10.7099 8.754 10.4532 8.852 10.2665 9.048C10.0799 9.244 9.98653 9.51 9.98653 9.846V10.21H7.77453V9.692C7.77453 8.768 8.08253 8.07267 8.69853 7.606C9.31453 7.13 10.0939 6.892 11.0365 6.892C12.0259 6.892 12.8239 7.12067 13.4305 7.578C14.0465 8.03533 14.3545 8.74 14.3545 9.692C14.3545 10.364 14.1959 10.91 13.8785 11.33C13.5705 11.7407 13.0992 12.1233 12.4645 12.478L11.7785 12.898C11.6292 12.982 11.5312 13.0707 11.4845 13.164C11.4379 13.2573 11.4145 13.3927 11.4145 13.57ZM8.97853 17V14.536H11.5965V17H8.97853Z" fill="white"/>
<circle cx="11" cy="11" r="10.5" stroke="white"/>
</svg>
