<svg width="21" height="21" viewBox="0 0 21 21" fill="none" xmlns="http://www.w3.org/2000/svg">
<path d="M9.12877 6.31424C9.51837 5.92462 10.0288 5.72935 10.5395 5.72846C11.0525 5.72756 11.5658 5.92282 11.9572 6.31424C12.3477 6.70477 12.543 7.21661 12.543 7.72846C12.543 8.2403 12.3477 8.75211 11.9572 9.14261C11.5658 9.53411 11.0525 9.72932 10.5395 9.72842L10.543 10.7284M19.543 10.7285C19.543 15.6991 15.5135 19.7285 10.543 19.7285C5.57241 19.7285 1.54297 15.6991 1.54297 10.7285C1.54297 5.75795 5.57241 1.72852 10.543 1.72852C15.5135 1.72852 19.543 5.75795 19.543 10.7285ZM10.543 14.7285H10.553V14.7385H10.543V14.7285Z" stroke="#95959C" stroke-width="2" stroke-linecap="round" stroke-linejoin="round"/>
</svg>
