<svg width="28" height="27" viewBox="0 0 28 27" fill="none" xmlns="http://www.w3.org/2000/svg">
<circle cx="13.8783" cy="13.1678" r="13.1678" fill="#5B5B72"/>
<path fill-rule="evenodd" clip-rule="evenodd" d="M13.8793 6.89746C12.1766 6.89746 11.963 6.9047 11.2939 6.93508C10.6264 6.96547 10.1706 7.07158 9.77169 7.22642C9.35337 7.38397 8.97444 7.63088 8.66135 7.94992C8.34224 8.26316 8.09533 8.64225 7.93784 9.06075C7.78301 9.45916 7.67738 9.91497 7.64651 10.5825C7.61612 11.2515 7.60889 11.4652 7.60889 13.1679C7.60889 14.8705 7.61612 15.0842 7.64651 15.7532C7.6769 16.4207 7.78301 16.8765 7.93784 17.275C8.09846 17.6874 8.31262 18.0371 8.66135 18.3858C8.97444 18.7048 9.35337 18.9517 9.77169 19.1093C10.1706 19.2636 10.6264 19.3698 11.2939 19.4006C11.963 19.431 12.1766 19.4382 13.8793 19.4382C15.5819 19.4382 15.7956 19.431 16.4646 19.4006C17.1322 19.3702 17.588 19.2641 17.9864 19.1093C18.4049 18.9518 18.784 18.7049 19.0972 18.3858C19.4163 18.0725 19.6632 17.6935 19.8207 17.275C19.9751 16.8765 20.0812 16.4207 20.1121 15.7532C20.1424 15.0842 20.1497 14.8705 20.1497 13.1679C20.1497 11.4652 20.1424 11.2515 20.1121 10.5825C20.0817 9.91497 19.9755 9.45916 19.8202 9.06075C19.6629 8.64229 19.4161 8.26321 19.0972 7.94992C18.784 7.63081 18.4049 7.38389 17.9864 7.22642C17.588 7.07207 17.1322 6.96595 16.4646 6.93508C15.7956 6.9047 15.5819 6.89746 13.8793 6.89746ZM13.8793 8.0271C15.5535 8.0271 15.7517 8.03385 16.413 8.06375C17.0241 8.09173 17.3565 8.19399 17.5774 8.27984C17.8701 8.39367 18.079 8.52921 18.2985 8.74867C18.5179 8.96814 18.6535 9.17699 18.7673 9.46977C18.8531 9.69068 18.9554 10.0225 18.9834 10.6341C19.0133 11.2949 19.02 11.4937 19.02 13.1679C19.02 14.842 19.0133 15.0403 18.9834 15.7016C18.9554 16.3132 18.8531 16.645 18.7673 16.8659C18.6668 17.1383 18.5066 17.3847 18.2985 17.587C18.0961 17.7952 17.8497 17.9554 17.5774 18.0559C17.3565 18.1417 17.0241 18.244 16.413 18.272C15.7522 18.3019 15.5535 18.3086 13.8793 18.3086C12.2051 18.3086 12.0064 18.3019 11.3456 18.272C10.734 18.244 10.4021 18.1417 10.1812 18.0559C9.90881 17.9554 9.66241 17.7952 9.4601 17.587C9.25194 17.3847 9.09174 17.1383 8.99127 16.8659C8.90541 16.645 8.80316 16.3132 8.77518 15.7016C8.74527 15.0408 8.73852 14.842 8.73852 13.1679C8.73852 11.4937 8.74527 11.2954 8.77518 10.6341C8.80316 10.0225 8.90541 9.69068 8.99127 9.46977C9.1051 9.17699 9.24064 8.96814 9.4601 8.74867C9.66242 8.54049 9.90882 8.38028 10.1812 8.27984C10.4021 8.19399 10.734 8.09173 11.3456 8.06375C12.0064 8.03385 12.2051 8.0271 13.8793 8.0271Z" fill="black"/>
<path fill-rule="evenodd" clip-rule="evenodd" d="M13.8793 9.79149C12.9838 9.79149 12.125 10.1472 11.4918 10.7804C10.8586 11.4136 10.5029 12.2724 10.5029 13.1679C10.5029 14.0633 10.8586 14.9221 11.4918 15.5553C12.125 16.1885 12.9838 16.5442 13.8793 16.5442C14.7747 16.5442 15.6335 16.1885 16.2667 15.5553C16.8999 14.9221 17.2556 14.0633 17.2556 13.1679C17.2556 12.2724 16.8999 11.4136 16.2667 10.7804C15.6335 10.1472 14.7747 9.79149 13.8793 9.79149ZM13.8793 15.3384C13.3036 15.3384 12.7515 15.1097 12.3445 14.7026C11.9374 14.2956 11.7088 13.7435 11.7088 13.1679C11.7088 12.5922 11.9374 12.0401 12.3445 11.6331C12.7515 11.226 13.3036 10.9973 13.8793 10.9973C14.4549 10.9973 15.007 11.226 15.4141 11.6331C15.8211 12.0401 16.0498 12.5922 16.0498 13.1679C16.0498 13.7435 15.8211 14.2956 15.4141 14.7026C15.007 15.1097 14.4549 15.3384 13.8793 15.3384ZM18.0756 9.83972C18.0756 9.94107 18.0557 10.0414 18.0169 10.1351C17.9781 10.2287 17.9212 10.3138 17.8496 10.3854C17.7779 10.4571 17.6928 10.5139 17.5992 10.5527C17.5056 10.5915 17.4052 10.6115 17.3039 10.6115C17.2025 10.6115 17.1022 10.5915 17.0085 10.5527C16.9149 10.5139 16.8298 10.4571 16.7582 10.3854C16.6865 10.3138 16.6297 10.2287 16.5909 10.1351C16.5521 10.0414 16.5321 9.94107 16.5321 9.83972C16.5321 9.63504 16.6134 9.43875 16.7582 9.29402C16.9029 9.14929 17.0992 9.06798 17.3039 9.06798C17.5086 9.06798 17.7049 9.14929 17.8496 9.29402C17.9943 9.43875 18.0756 9.63504 18.0756 9.83972Z" fill="black"/>
</svg>
