<svg width="21" height="21" viewBox="0 0 21 21" fill="none" xmlns="http://www.w3.org/2000/svg">
<path d="M10.4999 0.000109476C8.42325 0.000109476 6.3932 0.61592 4.66649 1.76967C2.93979 2.92342 1.59398 4.56328 0.799265 6.4819C0.00454951 8.40051 -0.203384 10.5117 0.201758 12.5485C0.606901 14.5853 1.60692 16.4562 3.07537 17.9246C4.54381 19.3931 6.41472 20.3931 8.45151 20.7982C10.4883 21.2034 12.5995 20.9955 14.5181 20.2007C16.4367 19.406 18.0766 18.0602 19.2303 16.3335C20.3841 14.6068 20.9999 12.5767 20.9999 10.5001C21.0062 9.11941 20.7389 7.7512 20.2135 6.47443C19.6881 5.19767 18.9149 4.03765 17.9386 3.06138C16.9623 2.08511 15.8023 1.31193 14.5256 0.7865C13.2488 0.261066 11.8806 -0.00620934 10.4999 0.000109476ZM11.4545 15.2728C11.4545 15.5259 11.3539 15.7687 11.1749 15.9477C10.9959 16.1267 10.7531 16.2273 10.4999 16.2273C10.2468 16.2273 10.004 16.1267 9.82499 15.9477C9.64597 15.7687 9.54541 15.5259 9.54541 15.2728V9.54551C9.54541 9.29235 9.64597 9.04956 9.82499 8.87055C10.004 8.69154 10.2468 8.59097 10.4999 8.59097C10.7531 8.59097 10.9959 8.69154 11.1749 8.87055C11.3539 9.04956 11.4545 9.29235 11.4545 9.54551V15.2728ZM10.4999 6.68189C10.3112 6.68189 10.1266 6.62591 9.96963 6.52102C9.81266 6.41614 9.69031 6.26706 9.61807 6.09264C9.54582 5.91822 9.52692 5.72629 9.56375 5.54113C9.60058 5.35597 9.69149 5.18588 9.82499 5.05239C9.95848 4.91889 10.1286 4.82798 10.3137 4.79115C10.4989 4.75432 10.6908 4.77322 10.8652 4.84547C11.0397 4.91772 11.1887 5.04006 11.2936 5.19704C11.3985 5.35401 11.4545 5.53856 11.4545 5.72735C11.4545 5.98051 11.3539 6.2233 11.1749 6.40231C10.9959 6.58132 10.7531 6.68189 10.4999 6.68189Z" fill="#95959C"/>
</svg>
