<svg width="169" height="22" viewBox="0 0 169 22" fill="none" xmlns="http://www.w3.org/2000/svg">
<path d="M114.691 14.321V15.5475H125.694V21.9467H106.742V1.54934H125.694V7.89518H114.691V9.20167H125.3C125.3 10.8548 125.326 12.4013 125.273 13.9744C125.273 14.1077 124.852 14.321 124.615 14.321C122.009 14.3477 119.403 14.3477 116.797 14.3477H114.691" fill="white"/>
<path d="M55.7794 13.7877C55.3319 12.2679 54.9107 10.8015 54.4106 9.38832C54.3579 9.20167 53.9104 9.09502 53.6209 9.09502C53.4103 9.09502 53.0417 9.255 52.9891 9.41498C52.5153 10.8548 52.0941 12.2946 51.6729 13.8144H55.7794V13.7877ZM66.414 21.9733C63.7554 21.9733 61.1757 21.9733 58.596 21.9467C58.4117 21.9467 58.1485 21.6534 58.0958 21.4667C57.5167 19.8136 57.5167 19.8136 55.7794 19.8136C54.042 19.8136 52.331 19.8403 50.5937 19.8136C50.0672 19.8136 49.804 19.9469 49.646 20.5069C49.2512 22 49.1985 22 47.6718 22H41.0119C41.1172 21.6267 41.1962 21.3334 41.3015 21.0401C43.4863 14.7743 45.6975 8.50843 47.8823 2.21592C48.0666 1.68266 48.3035 1.49601 48.8826 1.49601C52.1204 1.52268 55.3319 1.52268 58.5697 1.49601C59.0698 1.49601 59.3067 1.62933 59.491 2.13593C61.7021 8.50843 63.9396 14.8809 66.1771 21.2534C66.2561 21.4401 66.3087 21.6534 66.414 21.9733Z" fill="white"/>
<path d="M7.976 8.16181V11.4414C9.23953 11.4414 10.4767 11.5214 11.6876 11.4147C12.6352 11.3347 13.1617 10.6681 13.1617 9.81493C13.1617 8.93504 12.5826 8.2418 11.6086 8.18847C10.3978 8.10848 9.2132 8.16181 7.976 8.16181ZM0 1.52268C0.263234 1.49601 0.473822 1.46935 0.684409 1.46935C4.50131 1.46935 8.34453 1.41602 12.1614 1.49601C13.5829 1.52267 15.0044 1.73598 16.3732 2.13593C18.7423 2.82917 20.2427 4.50895 20.8218 6.9353C21.2957 8.85505 21.2957 10.8015 20.8218 12.7212C20.0585 15.8141 17.5314 17.7872 13.9514 18.0538C12.293 18.1872 10.6083 18.1605 8.92364 18.1872C8.63409 18.1872 8.31821 18.1872 7.94968 18.1872V21.92H0V1.52268Z" fill="white"/>
<path d="M86.1303 1.52268H105.636C105.636 2.96249 105.504 4.37564 105.662 5.78879C105.847 7.41524 105.267 8.40178 103.899 9.28167C101.451 10.8548 99.1341 12.6412 96.765 14.321C96.6597 14.401 96.5281 14.4543 96.4754 14.5343C96.3701 14.6943 96.2911 14.9076 96.2122 15.0942C96.3964 15.1476 96.5544 15.2809 96.7386 15.2809C98.4497 15.2809 100.134 15.2809 101.845 15.2809H105.504V21.92H85.9987C85.9987 19.8403 85.9724 17.7872 86.025 15.7608C86.025 15.5475 86.3146 15.2542 86.5515 15.0942C89.2891 13.0945 92.0267 11.0948 94.7644 9.09502C95.0276 8.90838 95.1592 8.58842 95.3698 8.34845C95.3172 8.26846 95.2645 8.21513 95.2119 8.13514H92.9744C90.9475 8.13514 88.9206 8.10848 86.8937 8.13514C86.3672 8.13514 86.1303 8.02849 86.1303 7.4419C86.1566 5.52215 86.1566 3.57574 86.1303 1.52268Z" fill="white"/>
<path d="M69.6255 21.9467C69.6255 20.0803 69.6518 18.2672 69.5992 16.4807C69.5992 15.9741 69.4412 15.4409 69.2043 14.9876C66.7562 10.7215 64.2818 6.45537 61.8338 2.18926C61.7285 2.00261 61.6232 1.78931 61.4916 1.52268C61.8074 1.49601 62.0444 1.46935 62.2813 1.46935C64.5188 1.46935 66.7299 1.49601 68.9674 1.44268C69.6255 1.44268 69.9414 1.65599 70.2309 2.24258C71.1523 4.05567 72.1262 5.81544 73.1002 7.57522C73.2318 7.81518 73.495 7.97517 73.7056 8.16181C73.8899 7.97517 74.1005 7.81519 74.2321 7.60188C75.2324 5.78878 76.2064 3.97569 77.1803 2.13593C77.4436 1.65599 77.7068 1.44268 78.2596 1.44268C80.734 1.46935 83.2084 1.44268 85.8407 1.44268C85.6565 1.7893 85.5512 2.02927 85.4196 2.26924C82.9715 6.50869 80.5234 10.7481 78.1017 14.9876C77.8121 15.4942 77.6541 16.1074 77.6541 16.694C77.6015 18.4005 77.6278 20.1336 77.6278 21.8933L69.6255 21.9467Z" fill="white"/>
<path d="M22.3749 1.52268H30.2456V15.2809H40.4065V21.92H22.3749V1.52268Z" fill="white"/>
<path d="M135.092 1.54934V15.2809H145.253V21.92H127.195V1.54934H135.092Z" fill="white"/>
<path fill-rule="evenodd" clip-rule="evenodd" d="M168.549 7.62855C167.865 4.96223 166.311 2.96249 163.942 1.60267C162.179 0.589466 160.257 0.136194 158.257 0.029541C155.677 -0.103775 153.202 0.189523 150.886 1.41603C147.938 2.96249 146.2 5.44217 145.727 8.74841C145.621 9.52164 145.542 10.2949 145.542 11.0414L153.861 10.5615C154.887 10.5082 154.887 11.8147 153.861 11.7613L145.516 11.2814C145.542 14.561 146.648 17.4673 149.57 19.6803C151.834 21.3868 154.466 21.92 157.256 21.9733C158.204 21.8667 159.152 21.84 160.099 21.6801C163.732 21.0135 166.601 19.2004 168.101 15.6008C169.181 13.0412 169.233 10.3482 168.549 7.62855ZM164.548 12.1613L155.045 17.7072C153.387 18.6671 152.413 18.2405 152.413 16.1341V13.1478C151.913 13.0145 151.333 12.9345 150.623 12.9612C151.202 12.8279 151.807 12.7479 152.413 12.7745C153.097 12.7745 153.755 12.8812 154.413 13.0678C155.071 13.2811 155.808 13.2012 156.414 12.8545L156.572 12.7745L155.598 11.9746C157.651 13.1745 159.652 12.8812 161.573 11.1214C159.652 9.36166 157.651 9.09502 155.598 10.2682L156.572 9.46831L156.414 9.38832C155.808 9.06836 155.071 8.98837 154.413 9.17501C153.755 9.36165 153.097 9.46831 152.413 9.46831C151.807 9.46831 151.228 9.41499 150.623 9.28167C151.333 9.28167 151.913 9.22834 152.413 9.09502V6.10874C152.413 4.00235 153.387 3.57574 155.045 4.53562L164.548 10.0816C165.89 10.9348 165.89 11.3881 164.548 12.1613ZM157.388 11.1481C157.388 10.8548 157.862 10.5882 158.414 10.5882C158.967 10.5882 159.441 10.8281 159.441 11.1481C159.441 11.4681 158.967 11.708 158.414 11.708C157.862 11.708 157.388 11.4681 157.388 11.1481Z" fill="url(#paint0_linear_1_69)"/>
<defs>
<linearGradient id="paint0_linear_1_69" x1="151.332" y1="16.6922" x2="166.25" y2="2.62116" gradientUnits="userSpaceOnUse">
<stop stop-color="#5A45D1"/>
<stop offset="1" stop-color="#BA6AFF"/>
</linearGradient>
</defs>
</svg>
