<svg width="24" height="23" viewBox="0 0 24 23" fill="none" xmlns="http://www.w3.org/2000/svg">
<path d="M22.9864 18.0324C23.6441 16.8187 23.9919 15.4649 23.9999 14.0884C24.0078 12.7119 23.6756 11.3542 23.032 10.1331C22.3885 8.91204 21.453 7.86434 20.3066 7.08084C19.1603 6.29735 17.8377 5.80172 16.4535 5.63691C15.9987 4.58637 15.3332 3.63762 14.4971 2.84784C13.661 2.05806 12.6716 1.4436 11.5885 1.0415C10.5054 0.639395 9.35099 0.457976 8.19496 0.508173C7.03893 0.558371 5.90516 0.839146 4.86199 1.33358C3.81882 1.82801 2.88784 2.52585 2.12518 3.38506C1.36252 4.24426 0.783957 5.24703 0.424371 6.33293C0.0647839 7.41882 -0.0683835 8.56536 0.0328947 9.70343C0.134173 10.8415 0.4678 11.9475 1.01367 12.9549L0.351034 15.2451C0.277505 15.499 0.274099 15.7677 0.341168 16.0234C0.408238 16.2791 0.543342 16.5124 0.73248 16.6992C0.921617 16.886 1.15791 17.0194 1.41686 17.0857C1.6758 17.1519 1.94799 17.1486 2.20521 17.0761L4.52511 16.4217C5.46388 16.9178 6.48821 17.2365 7.54546 17.3614C8.01285 18.4409 8.70252 19.4126 9.57066 20.2149C10.4388 21.0171 11.4664 21.6323 12.5883 22.0214C13.7102 22.4105 14.9017 22.565 16.0873 22.4751C17.2729 22.3852 18.4266 22.0529 19.4751 21.4992L21.7949 22.1536C22.0521 22.2262 22.3243 22.2295 22.5832 22.1632C22.8421 22.097 23.0784 21.9635 23.2676 21.7768C23.4567 21.59 23.5918 21.3567 23.6589 21.1011C23.726 20.8454 23.7227 20.5767 23.6492 20.3228L22.9864 18.0324ZM21.3271 17.4921C21.2674 17.5912 21.2288 17.7014 21.2138 17.8157C21.1987 17.9301 21.2075 18.0463 21.2396 18.1572L21.8949 20.4216L19.6014 19.7747C19.4891 19.743 19.3714 19.7343 19.2556 19.7492C19.1398 19.764 19.0283 19.8021 18.9279 19.861C18.1434 20.32 17.2741 20.62 16.3709 20.7435C15.4676 20.8669 14.5485 20.8114 13.6672 20.5801C12.786 20.3488 11.9603 19.9463 11.2384 19.3963C10.5165 18.8462 9.91289 18.1596 9.46289 17.3766C10.637 17.2566 11.7732 16.8983 12.8003 16.324C13.8274 15.7498 14.7232 14.972 15.4313 14.0396C16.1394 13.1072 16.6445 12.0404 16.915 10.906C17.1855 9.77166 17.2155 8.59433 17.0031 7.44799C18.0504 7.69223 19.0247 8.1763 19.8475 8.86108C20.6702 9.54586 21.3182 10.4121 21.7392 11.3899C22.1601 12.3677 22.3421 13.4295 22.2705 14.4895C22.1989 15.5496 21.8757 16.5782 21.3271 17.4921Z" fill="#95959C"/>
</svg>
