<svg width="28" height="27" viewBox="0 0 28 27" fill="none" xmlns="http://www.w3.org/2000/svg">
<path fill-rule="evenodd" clip-rule="evenodd" d="M24.7286 19.9804C25.8747 18.0883 26.5345 15.8702 26.5345 13.4998C26.5345 6.5819 20.9182 0.965591 14.0004 0.965591C7.08251 0.965591 1.4662 6.5819 1.4662 13.4998C1.4662 20.4176 7.08251 26.0339 14.0004 26.0339C15.8293 26.0339 17.5671 25.6408 19.1343 24.9359L26.5345 26.0339L24.7286 19.9804Z" fill="url(#paint0_linear_1_71)"/>
<path fill-rule="evenodd" clip-rule="evenodd" d="M25.7735 20.1056L27.4595 25.7582C27.5541 26.074 27.4797 26.4168 27.2634 26.6659C27.0471 26.916 26.7188 27.0377 26.3925 26.9894L19.2664 25.9321C17.649 26.6186 15.8684 27 14 27C6.54945 27 0.500001 20.9505 0.500001 13.5C0.500001 6.04946 6.54945 0 14 0C21.4505 0 27.5 6.04946 27.5 13.5C27.5 15.8985 26.8724 18.1522 25.7735 20.1056ZM23.8027 20.2563C23.7255 19.9956 23.7612 19.7136 23.9022 19.4799C24.9595 17.7341 25.5688 15.6871 25.5688 13.5C25.5688 7.11451 20.3845 1.93119 14 1.93119C7.6145 1.93119 2.43119 7.11451 2.43119 13.5C2.43119 19.8845 7.6145 25.0688 14 25.0688C15.6878 25.0688 17.2917 24.7067 18.7372 24.0559C18.9062 23.9796 19.0926 23.9535 19.276 23.9806L25.1748 24.8564L23.8027 20.2563ZM19.8119 11.5872C20.8779 11.5872 21.7431 12.4523 21.7431 13.5183C21.7431 14.5844 20.8779 15.4495 19.8119 15.4495C18.7459 15.4495 17.8807 14.5844 17.8807 13.5183C17.8807 12.4523 18.7459 11.5872 19.8119 11.5872ZM14.0183 11.5872C15.0844 11.5872 15.9495 12.4523 15.9495 13.5183C15.9495 14.5844 15.0844 15.4495 14.0183 15.4495C12.9523 15.4495 12.0872 14.5844 12.0872 13.5183C12.0872 12.4523 12.9523 11.5872 14.0183 11.5872ZM8.22477 11.5872C9.29079 11.5872 10.156 12.4523 10.156 13.5183C10.156 14.5844 9.29079 15.4495 8.22477 15.4495C7.15875 15.4495 6.29358 14.5844 6.29358 13.5183C6.29358 12.4523 7.15875 11.5872 8.22477 11.5872Z" fill="#DFC6FF"/>
<defs>
<linearGradient id="paint0_linear_1_71" x1="20.8136" y1="20.5107" x2="2.59311" y2="4.43109" gradientUnits="userSpaceOnUse">
<stop stop-color="#5A45D1"/>
<stop offset="1" stop-color="#BA6AFF"/>
</linearGradient>
</defs>
</svg>
