<svg width="50" height="47" viewBox="0 0 50 47" fill="none" xmlns="http://www.w3.org/2000/svg">
<rect x="0.5" y="0.5" width="49" height="46" rx="7.5" fill="url(#paint0_linear_237_13975)"/>
<path d="M40 21.9255V25.0842C40 25.9429 39.31 26.6482 38.455 26.6482H35.56C33.9401 26.6482 32.4551 25.4369 32.3201 23.7809C32.2301 22.8149 32.5901 21.9102 33.2201 21.2815C33.7751 20.6989 34.5401 20.3615 35.38 20.3615H38.455C39.31 20.3615 40 21.0669 40 21.9255Z" fill="white"/>
<path d="M30.0698 23.9753C29.9348 22.3653 30.5048 20.786 31.6448 19.636C32.6048 18.6393 33.9398 18.0566 35.3797 18.0566H36.2347C36.6547 18.0566 36.9997 17.704 36.9397 17.2747C36.5347 14.3 34.0148 12 30.9998 12H15.9999C12.685 12 10 14.7447 10 18.1333V28.8667C10 32.2553 12.685 35 15.9999 35H30.9998C34.0298 35 36.5347 32.7 36.9397 29.7253C36.9997 29.296 36.6547 28.9433 36.2347 28.9433H35.5597C32.7098 28.9433 30.3098 26.766 30.0698 23.9753ZM26.4998 20.8166H17.4999C16.8849 20.8166 16.3749 20.3106 16.3749 19.6666C16.3749 19.0226 16.8849 18.5166 17.4999 18.5166H26.4998C27.1148 18.5166 27.6248 19.038 27.6248 19.6666C27.6248 20.2953 27.1148 20.8166 26.4998 20.8166Z" fill="white"/>
<rect x="0.5" y="0.5" width="49" height="46" rx="7.5" stroke="#363646"/>
<defs>
<linearGradient id="paint0_linear_237_13975" x1="12.3823" y1="35.7038" x2="44.2839" y2="5.75352" gradientUnits="userSpaceOnUse">
<stop stop-color="#5A45D1"/>
<stop offset="1" stop-color="#BA6AFF"/>
</linearGradient>
</defs>
</svg>
