<svg width="46" height="46" viewBox="0 0 46 46" fill="none" xmlns="http://www.w3.org/2000/svg">
<circle cx="22.6375" cy="22.6375" r="21.1375" fill="#282836" stroke="url(#paint0_linear_35_1974)" stroke-width="3"/>
<path d="M19.3383 32.4603C19.3383 32.4603 20.5307 31.4546 20.5489 29.0017C24.5147 26.7123 27.2243 23.8593 27.2243 23.8593C27.2243 23.8593 29.1542 26.4575 27.1328 28.8307C23.6702 32.8949 19.3383 32.4603 19.3383 32.4603ZM13.9358 25.3964C13.9358 25.3964 16.7331 18.8547 18.5606 16.7091C19.3828 15.7438 20.2229 14.9775 21.056 14.3418L28.3815 20.5812C27.8872 21.5064 27.2644 22.4589 26.4427 23.4236C24.643 25.5366 18.6071 29.3751 18.6071 29.3751L13.9358 25.3964ZM23.7092 18.6421C22.8855 17.9405 21.6471 18.041 20.9434 18.8673C20.2402 19.6929 20.3374 20.9321 21.1612 21.6337C21.9849 22.3353 23.2239 22.2353 23.9276 21.409C24.6319 20.5833 24.5336 19.3442 23.7092 18.6421ZM29.0783 11.6888L30.813 9.65211L31.394 10.1469L29.7034 12.1318C29.9547 13.1818 30.4394 16.2528 28.7244 19.9128L21.6602 13.896C24.9039 11.6788 27.912 11.6117 29.0783 11.6888ZM10.7742 25.166C10.7742 25.166 9.65583 20.9584 13.1179 16.8937C15.1393 14.5204 18.0114 16.0123 18.0114 16.0123C18.0114 16.0123 15.6259 19.1414 13.9961 23.4204C11.5763 23.8288 10.7742 25.166 10.7742 25.166ZM15.7827 29.9503L15.7114 29.0477L13.8076 30.2321L14.5757 28.0804L13.4344 28.566L14.1192 26.5121L17.4607 29.3582L15.7827 29.9503Z" fill="#3D3D4E"/>
<defs>
<linearGradient id="paint0_linear_35_1974" x1="11.2122" y1="34.3935" x2="41.7652" y2="7.43029" gradientUnits="userSpaceOnUse">
<stop stop-color="#5A45D1"/>
<stop offset="1" stop-color="#BA6AFF"/>
</linearGradient>
</defs>
</svg>
