<svg width="16" height="16" viewBox="0 0 16 16" fill="none" xmlns="http://www.w3.org/2000/svg">
<path fill-rule="evenodd" clip-rule="evenodd" d="M7.41973 0C6.30326 0 5.39816 0.910128 5.39816 2.03283C5.39816 2.19554 5.28658 2.41262 5.01989 2.55826C4.93782 2.60307 4.85689 2.64968 4.77714 2.69802C4.51116 2.85926 4.26148 2.8489 4.11488 2.76456C3.14125 2.20438 1.90054 2.53866 1.33588 3.5133L0.775454 4.48062C0.209708 5.45713 0.543582 6.71016 1.51908 7.27136C1.66051 7.3528 1.7935 7.55976 1.78702 7.86768C1.7861 7.91168 1.78563 7.95584 1.78563 8C1.78563 8.04424 1.7861 8.08832 1.78702 8.13232C1.7935 8.44032 1.66052 8.64728 1.5191 8.72864C0.543606 9.28984 0.209732 10.5429 0.775478 11.5194L1.33592 12.4867C1.90058 13.4614 3.14127 13.7956 4.11491 13.2354C4.2615 13.1511 4.51117 13.1407 4.77714 13.302C4.85689 13.3503 4.93782 13.397 5.01989 13.4418C5.28658 13.5874 5.39816 13.8045 5.39816 13.9672C5.39816 15.0898 6.30326 16 7.41973 16H8.58024C9.69676 16 10.6018 15.0898 10.6018 13.9672C10.6018 13.8045 10.7134 13.5874 10.9801 13.4418C11.0621 13.397 11.1431 13.3503 11.2228 13.302C11.4888 13.1407 11.7385 13.1511 11.8851 13.2354C12.8587 13.7956 14.0994 13.4614 14.6641 12.4867L15.2245 11.5194C15.7903 10.5429 15.4564 9.28984 14.4809 8.72864C14.3395 8.64728 14.2065 8.44032 14.213 8.13232C14.2139 8.08832 14.2144 8.04416 14.2144 8C14.2144 7.95584 14.2139 7.91168 14.213 7.86768C14.2065 7.55968 14.3395 7.35272 14.4809 7.27136C15.4565 6.71016 15.7903 5.45712 15.2245 4.48061L14.6641 3.5133C14.0994 2.53866 12.8587 2.20438 11.8851 2.76455C11.7385 2.8489 11.4888 2.85925 11.2228 2.69802C11.1431 2.64967 11.0622 2.60307 10.9801 2.55826C10.7134 2.41262 10.6018 2.19554 10.6018 2.03283C10.6018 0.910128 9.69676 0 8.58024 0H7.41973ZM7.99995 5.6C6.68175 5.6 5.6132 6.67448 5.6132 8C5.6132 9.32552 6.68175 10.4 7.99995 10.4C9.31814 10.4 10.3867 9.32552 10.3867 8C10.3867 6.67448 9.31814 5.6 7.99995 5.6Z" fill="#95959C"/>
</svg>
