<svg width="20" height="22" viewBox="0 0 20 22" fill="none" xmlns="http://www.w3.org/2000/svg">
<path d="M2.22222 11C2.22414 9.48577 2.67699 8.00572 3.52412 6.74496C4.37126 5.48419 5.57508 4.49869 6.98501 3.91171C8.39494 3.32474 9.94839 3.16235 11.4511 3.44485C12.9537 3.72735 14.3389 4.4422 15.4333 5.5H12.2222C11.9275 5.5 11.6449 5.61589 11.4365 5.82218C11.2282 6.02847 11.1111 6.30826 11.1111 6.6C11.1111 6.89174 11.2282 7.17153 11.4365 7.37782C11.6449 7.58411 11.9275 7.7 12.2222 7.7H17.8667C18.1457 7.67783 18.406 7.55223 18.5955 7.34829C18.785 7.14435 18.8898 6.87711 18.8889 6.6V1.1C18.8889 0.808262 18.7718 0.528473 18.5635 0.322183C18.3551 0.115892 18.0725 0 17.7778 0C17.4831 0 17.2005 0.115892 16.9921 0.322183C16.7837 0.528473 16.6667 0.808262 16.6667 1.1V3.652C15.2298 2.37966 13.4521 1.54561 11.5475 1.25025C9.643 0.954897 7.69282 1.21083 5.93179 1.98723C4.17075 2.76364 2.67393 4.02742 1.62154 5.62643C0.569144 7.22544 0.00603274 9.09152 0 11C0 11.2917 0.117063 11.5715 0.325437 11.7778C0.533811 11.9841 0.816426 12.1 1.11111 12.1C1.4058 12.1 1.68841 11.9841 1.89679 11.7778C2.10516 11.5715 2.22222 11.2917 2.22222 11Z" fill="#95959C"/>
<path d="M18.8889 9.9C18.5942 9.9 18.3116 10.0159 18.1032 10.2222C17.8948 10.4285 17.7778 10.7083 17.7778 11C17.7759 12.5142 17.323 13.9943 16.4759 15.255C15.6287 16.5158 14.4249 17.5013 13.015 18.0883C11.6051 18.6753 10.0516 18.8377 8.54895 18.5552C7.04628 18.2727 5.6611 17.5578 4.56667 16.5H7.77778C8.07246 16.5 8.35508 16.3841 8.56345 16.1778C8.77183 15.9715 8.88889 15.6917 8.88889 15.4C8.88889 15.1083 8.77183 14.8285 8.56345 14.6222C8.35508 14.4159 8.07246 14.3 7.77778 14.3H2.13333C1.85432 14.3222 1.59403 14.4478 1.40452 14.6517C1.215 14.8556 1.11021 15.1229 1.11111 15.4V20.9C1.11111 21.1917 1.22817 21.4715 1.43655 21.6778C1.64492 21.8841 1.92754 22 2.22222 22C2.51691 22 2.79952 21.8841 3.0079 21.6778C3.21627 21.4715 3.33333 21.1917 3.33333 20.9V18.348C4.7702 19.6203 6.54791 20.4544 8.45246 20.7497C10.357 21.0451 12.3072 20.7892 14.0682 20.0128C15.8292 19.2364 17.3261 17.9726 18.3785 16.3736C19.4309 14.7746 19.994 12.9085 20 11C20 10.7083 19.8829 10.4285 19.6746 10.2222C19.4662 10.0159 19.1836 9.9 18.8889 9.9Z" fill="#95959C"/>
</svg>
