<svg width="11" height="10" viewBox="0 0 11 10" fill="none" xmlns="http://www.w3.org/2000/svg">
<path d="M5.88324 0.980636C5.73756 0.91787 5.57629 0.899424 5.41979 0.927963C5.26334 0.956484 5.11961 1.03053 5.0062 1.13959L1.15998 4.83725C1.08171 4.91254 1.01986 5.00258 0.977758 5.10172C0.935663 5.20085 0.914062 5.30728 0.914062 5.4146C0.914062 5.52197 0.935663 5.62835 0.977758 5.72748C1.01986 5.82666 1.08182 5.9168 1.16009 5.99208L5.00624 9.68972C5.1197 9.79876 5.26334 9.87274 5.41979 9.90127C5.57629 9.9298 5.73756 9.91134 5.88324 9.84862C6.02888 9.78589 6.15174 9.68203 6.23756 9.55108C6.32329 9.42022 6.36856 9.26762 6.36861 9.11224V7.67422C7.41156 7.71913 8.06661 7.92213 8.56152 8.21823C9.13874 8.56355 9.54461 9.05864 10.1057 9.74737C10.2267 9.89586 10.4291 9.9527 10.6108 9.88921C10.7926 9.82567 10.9141 9.65566 10.9141 9.46486C10.9141 7.86349 10.6862 6.29624 9.93475 5.11832C9.22052 3.99881 8.06924 3.28546 6.36861 3.17881V1.71697C6.36856 1.56158 6.32329 1.40902 6.23756 1.27816C6.15174 1.14722 6.02888 1.04336 5.88324 0.980636Z" fill="white"/>
</svg>
