<svg width="22" height="19" viewBox="0 0 22 19" fill="none" xmlns="http://www.w3.org/2000/svg">
<path d="M20.1244 0.167737C20.1244 0.167737 22.1596 -0.654691 21.99 1.34264C21.9334 2.16508 21.4247 5.04357 21.0289 8.15707L19.6722 17.38C19.6722 17.38 19.5591 18.7312 18.5415 18.9662C17.5239 19.2011 15.9976 18.1437 15.7149 17.9087C15.4887 17.7325 11.475 15.089 10.0617 13.7966C9.66592 13.4441 9.21366 12.7392 10.1182 11.9167L16.0541 6.04227C16.7325 5.33731 17.4109 3.69246 14.5842 5.68979L6.66972 11.2706C6.66972 11.2706 5.76521 11.858 4.06927 11.3293L0.394649 10.1544C0.394649 10.1544 -0.962128 9.27324 1.3557 8.39202C7.00894 5.631 13.9624 2.81124 20.1244 0.167737Z" fill="white"/>
</svg>
