<svg width="21" height="20" viewBox="0 0 21 20" fill="none" xmlns="http://www.w3.org/2000/svg">
<path d="M9.00342 10.624C9.35438 11.0932 9.80215 11.4814 10.3163 11.7624C10.8305 12.0433 11.3991 12.2103 11.9836 12.2522C12.568 12.2941 13.1546 12.2097 13.7036 12.0049C14.2526 11.8002 14.7511 11.4797 15.1654 11.0653L17.6171 8.6136C18.3614 7.84294 18.7733 6.81076 18.7639 5.73938C18.7546 4.668 18.3249 3.64314 17.5673 2.88553C16.8097 2.12792 15.7848 1.69819 14.7134 1.68888C13.6421 1.67957 12.6099 2.09143 11.8392 2.83576L10.4336 4.23323" stroke="white" stroke-width="1.63447" stroke-linecap="round" stroke-linejoin="round"/>
<path d="M12.2724 8.98959C11.9214 8.5204 11.4737 8.13217 10.9595 7.85124C10.4453 7.57031 9.87667 7.40325 9.29223 7.36139C8.70779 7.31954 8.12119 7.40386 7.5722 7.60865C7.02322 7.81343 6.5247 8.13389 6.11046 8.54829L3.65875 11C2.91443 11.7706 2.50256 12.8028 2.51187 13.8742C2.52118 14.9456 2.95092 15.9704 3.70853 16.7281C4.46614 17.4857 5.491 17.9154 6.56238 17.9247C7.63376 17.934 8.66594 17.5222 9.4366 16.7778L10.8341 15.3804" stroke="white" stroke-width="1.63447" stroke-linecap="round" stroke-linejoin="round"/>
</svg>
