<svg width="13" height="13" viewBox="0 0 13 13" fill="none" xmlns="http://www.w3.org/2000/svg">
<path d="M6.95305 0.718916L8.61974 4.09949C8.64149 4.14659 8.6886 4.1792 8.73932 4.18645L12.4677 4.72995C12.7685 4.77343 12.8881 5.143 12.6706 5.35682L10.051 7.90761C9.96399 7.99093 9.92417 8.11413 9.94592 8.23372L10.5655 11.8389C10.6162 12.1397 10.301 12.3679 10.0329 12.2266L6.6958 10.4729C6.64869 10.4476 6.59435 10.4476 6.54723 10.4729L3.21012 12.2266C2.942 12.3679 2.62677 12.1397 2.67749 11.8389L3.31883 8.12504C3.32607 8.07431 3.31158 8.01997 3.27172 7.9837L0.575956 5.35314C0.35856 5.13939 0.478129 4.76981 0.778862 4.72633L4.50728 4.18282C4.558 4.17558 4.60511 4.14297 4.62685 4.09586L6.2936 0.715289C6.42764 0.447167 6.81894 0.447167 6.95305 0.718916Z" fill="url(#paint0_radial_35_1979)"/>
<path d="M2.53256 6.50208C1.83326 5.80282 0.844084 5.00566 1.05062 4.69043L0.778862 4.73029C0.478129 4.77377 0.35856 5.14337 0.575956 5.35712L3.27535 7.98768C3.31158 8.02389 3.32969 8.07823 3.32245 8.12895C3.41665 7.46951 3.23186 7.1978 2.53256 6.50208Z" fill="url(#paint1_radial_35_1979)"/>
<path d="M10.7131 6.50208C11.4124 5.80282 12.4016 5.00566 12.195 4.69043L12.4668 4.73029C12.7675 4.77377 12.8871 5.14337 12.6697 5.35712L9.97034 7.98768C9.93407 8.02389 9.916 8.07823 9.92323 8.12895C9.829 7.46951 10.0138 7.1978 10.7131 6.50208Z" fill="url(#paint2_radial_35_1979)"/>
<path d="M12.4687 4.72978L8.74026 4.18628C8.68954 4.17904 8.64242 4.14642 8.62067 4.09932L6.95392 0.71875C6.95392 0.71875 6.80174 0.907162 7.14598 1.62458C7.37064 2.09199 7.96123 3.3819 8.28372 4.0486C8.46488 4.42542 8.74026 4.43267 9.15692 4.48702L11.9107 4.83848C11.9071 4.84211 12.2114 4.86747 12.4687 4.72978Z" fill="url(#paint3_radial_35_1979)"/>
<path d="M6.95305 0.718916L8.61974 4.09949C8.64149 4.14659 8.6886 4.1792 8.73932 4.18645L12.4677 4.72995C12.7685 4.77343 12.8881 5.143 12.6706 5.35682L10.051 7.90761C9.96399 7.99093 9.92417 8.11413 9.94592 8.23372L10.5655 11.8389C10.6162 12.1397 10.301 12.3679 10.0329 12.2266L6.6958 10.4729C6.64869 10.4476 6.59435 10.4476 6.54723 10.4729L3.21012 12.2266C2.942 12.3679 2.62677 12.1397 2.67749 11.8389L3.31883 8.12504C3.32607 8.07431 3.31158 8.01997 3.27172 7.9837L0.575956 5.35314C0.35856 5.13939 0.478129 4.76981 0.778862 4.72633L4.50728 4.18282C4.558 4.17558 4.60511 4.14297 4.62685 4.09586L6.2936 0.715289C6.42764 0.447167 6.81894 0.447167 6.95305 0.718916Z" fill="url(#paint4_radial_35_1979)"/>
<path d="M6.95305 0.718916L8.61974 4.09949C8.64149 4.14659 8.6886 4.1792 8.73932 4.18645L12.4677 4.72995C12.7685 4.77343 12.8881 5.143 12.6706 5.35682L10.051 7.90761C9.96399 7.99093 9.92417 8.11413 9.94592 8.23372L10.5655 11.8389C10.6162 12.1397 10.301 12.3679 10.0329 12.2266L6.6958 10.4729C6.64869 10.4476 6.59435 10.4476 6.54723 10.4729L3.21012 12.2266C2.942 12.3679 2.62677 12.1397 2.67749 11.8389L3.31883 8.12504C3.32607 8.07431 3.31158 8.01997 3.27172 7.9837L0.575956 5.35314C0.35856 5.13939 0.478129 4.76981 0.778862 4.72633L4.50728 4.18282C4.558 4.17558 4.60511 4.14297 4.62685 4.09586L6.2936 0.715289C6.42764 0.447167 6.81894 0.447167 6.95305 0.718916Z" fill="url(#paint5_radial_35_1979)"/>
<path d="M6.2936 0.718916L4.62685 4.09949C4.60511 4.14659 4.558 4.1792 4.50728 4.18645L0.778862 4.72995C0.478129 4.77343 0.35856 5.143 0.575956 5.35682L3.19563 7.90761C3.28259 7.99093 3.32245 8.11413 3.30071 8.23372L2.68111 11.8389C2.63039 12.1397 2.94562 12.3679 3.21375 12.2266L6.55085 10.4729C6.59796 10.4476 6.6523 10.4476 6.69941 10.4729L10.0365 12.2266C10.3046 12.3679 10.6198 12.1397 10.5691 11.8389L9.92779 8.12504C9.92056 8.07431 9.93502 8.01997 9.9749 7.9837L12.6743 5.35314C12.8917 5.13939 12.7721 4.76981 12.4714 4.72633L8.74294 4.18282C8.69221 4.17558 8.6451 4.14297 8.62341 4.09586L6.95666 0.715289C6.81894 0.447167 6.42765 0.447167 6.2936 0.718916Z" fill="url(#paint6_radial_35_1979)"/>
<path d="M6.2936 0.718916L4.62685 4.09949C4.60511 4.14659 4.558 4.1792 4.50728 4.18645L0.778862 4.72995C0.478129 4.77343 0.35856 5.143 0.575956 5.35682L3.19563 7.90761C3.28259 7.99093 3.32245 8.11413 3.30071 8.23372L2.68111 11.8389C2.63039 12.1397 2.94562 12.3679 3.21375 12.2266L6.55085 10.4729C6.59796 10.4476 6.6523 10.4476 6.69941 10.4729L10.0365 12.2266C10.3046 12.3679 10.6198 12.1397 10.5691 11.8389L9.92779 8.12504C9.92056 8.07431 9.93502 8.01997 9.9749 7.9837L12.6743 5.35314C12.8917 5.13939 12.7721 4.76981 12.4714 4.72633L8.74294 4.18282C8.69221 4.17558 8.6451 4.14297 8.62341 4.09586L6.95666 0.715289C6.81894 0.447167 6.42765 0.447167 6.2936 0.718916Z" fill="url(#paint7_radial_35_1979)"/>
<path opacity="0.24" d="M6.2936 0.718916L4.62685 4.09949C4.60511 4.14659 4.558 4.1792 4.50728 4.18645L0.778862 4.72995C0.478129 4.77343 0.35856 5.143 0.575956 5.35682L3.19563 7.90761C3.28259 7.99093 3.32245 8.11413 3.30071 8.23372L2.68111 11.8389C2.63039 12.1397 2.94562 12.3679 3.21375 12.2266L6.55085 10.4729C6.59796 10.4476 6.6523 10.4476 6.69941 10.4729L10.0365 12.2266C10.3046 12.3679 10.6198 12.1397 10.5691 11.8389L9.92779 8.12504C9.92056 8.07431 9.93502 8.01997 9.9749 7.9837L12.6743 5.35314C12.8917 5.13939 12.7721 4.76981 12.4714 4.72633L8.74294 4.18282C8.69221 4.17558 8.6451 4.14297 8.62341 4.09586L6.95666 0.715289C6.81894 0.447167 6.42765 0.447167 6.2936 0.718916Z" fill="url(#paint8_radial_35_1979)"/>
<path opacity="0.24" d="M6.2936 0.718916L4.62685 4.09949C4.60511 4.14659 4.558 4.1792 4.50728 4.18645L0.778862 4.72995C0.478129 4.77343 0.35856 5.143 0.575956 5.35682L3.19563 7.90761C3.28259 7.99093 3.32245 8.11413 3.30071 8.23372L2.68111 11.8389C2.63039 12.1397 2.94562 12.3679 3.21375 12.2266L6.55085 10.4729C6.59796 10.4476 6.6523 10.4476 6.69941 10.4729L10.0365 12.2266C10.3046 12.3679 10.6198 12.1397 10.5691 11.8389L9.92779 8.12504C9.92056 8.07431 9.93502 8.01997 9.9749 7.9837L12.6743 5.35314C12.8917 5.13939 12.7721 4.76981 12.4714 4.72633L8.74294 4.18282C8.69221 4.17558 8.6451 4.14297 8.62341 4.09586L6.95666 0.715289C6.81894 0.447167 6.42765 0.447167 6.2936 0.718916Z" fill="url(#paint9_radial_35_1979)"/>
<path d="M0.778809 4.72978L4.50723 4.18628C4.55796 4.17904 4.60506 4.14642 4.6268 4.09932L6.29356 0.71875C6.29356 0.71875 6.44574 0.907162 6.10149 1.62458C5.87684 2.09199 5.28625 3.3819 4.96377 4.0486C4.7826 4.42542 4.50723 4.43267 4.09054 4.48702L1.3368 4.83848C1.34043 4.84211 1.03607 4.86747 0.778809 4.72978Z" fill="url(#paint10_radial_35_1979)"/>
<path opacity="0.5" d="M6.95305 0.718916L8.61974 4.09949C8.64149 4.14659 8.6886 4.1792 8.73932 4.18645L12.4677 4.72995C12.7685 4.77343 12.8881 5.143 12.6706 5.35682L10.051 7.90761C9.96399 7.99093 9.92417 8.11413 9.94592 8.23372L10.5655 11.8389C10.6162 12.1397 10.301 12.3679 10.0329 12.2266L6.6958 10.4729C6.64869 10.4476 6.59435 10.4476 6.54723 10.4729L3.21012 12.2266C2.942 12.3679 2.62677 12.1397 2.67749 11.8389L3.31883 8.12504C3.32607 8.07431 3.31158 8.01997 3.27172 7.9837L0.575956 5.35314C0.35856 5.13939 0.478129 4.76981 0.778862 4.72633L4.50728 4.18282C4.558 4.17558 4.60511 4.14297 4.62685 4.09586L6.2936 0.715289C6.42764 0.447167 6.81894 0.447167 6.95305 0.718916Z" fill="url(#paint11_radial_35_1979)"/>
<path d="M10.5655 11.8392L9.94592 8.23395C9.92417 8.11436 9.96399 7.99483 10.051 7.90784L12.6706 5.35343C12.8881 5.13962 12.7685 4.77004 12.4677 4.72656L8.73932 4.18306C8.6886 4.17582 8.64149 4.1432 8.61974 4.0961L6.95305 0.715531C6.81894 0.443781 6.43126 0.443781 6.2936 0.715531L4.62685 4.0961C4.60511 4.1432 4.558 4.17582 4.50728 4.18306L0.778862 4.72656C0.478129 4.77004 0.35856 5.13962 0.575956 5.35343L3.27535 7.98393C3.31158 8.0202 3.32969 8.07454 3.32245 8.12527L2.68111 11.8392C2.63039 12.1399 2.94562 12.3682 3.21375 12.2269L6.55085 10.4732C6.59796 10.4478 6.6523 10.4478 6.69941 10.4732L10.0365 12.2269C10.301 12.3682 10.6162 12.1399 10.5655 11.8392ZM10.2974 12.0276C10.272 12.0457 10.2104 12.0819 10.1307 12.0385L6.79725 10.2848C6.74285 10.2558 6.68489 10.2413 6.62694 10.2413C6.56898 10.2413 6.51096 10.2558 6.45662 10.2848L3.12317 12.0385C3.04345 12.0783 2.98185 12.0421 2.95649 12.0276C2.93113 12.0095 2.87678 11.9587 2.8949 11.8718L3.52535 8.16147C3.5471 8.04195 3.50724 7.92236 3.42028 7.83536L0.720895 5.20486C0.655673 5.14323 0.670168 5.07078 0.681036 5.0418C0.691904 5.01281 0.720895 4.94758 0.807853 4.9331L4.53627 4.38959C4.65584 4.37147 4.76091 4.29538 4.81164 4.19031L6.47837 0.809737C6.51826 0.730026 6.59067 0.722778 6.61971 0.722778C6.64869 0.722778 6.72116 0.730026 6.76098 0.809737L8.42774 4.19031C8.48208 4.29901 8.58353 4.3751 8.70312 4.38959L12.4315 4.9331C12.5185 4.94758 12.5511 5.01281 12.5584 5.0418C12.5692 5.07078 12.5837 5.14323 12.5185 5.20486L9.89881 7.75927C9.76477 7.88977 9.70313 8.08177 9.73211 8.26654L10.3517 11.8718C10.3735 11.9624 10.3191 12.0131 10.2974 12.0276Z" fill="url(#paint12_radial_35_1979)"/>
<defs>
<radialGradient id="paint0_radial_35_1979" cx="0" cy="0" r="1" gradientUnits="userSpaceOnUse" gradientTransform="translate(6.317 5.16691) scale(6.01959)">
<stop stop-color="#FFE343"/>
<stop offset="0.5492" stop-color="#FFE241"/>
<stop offset="0.7469" stop-color="#FFDF3A"/>
<stop offset="0.8874" stop-color="#FEDA2F"/>
<stop offset="1" stop-color="#FED31E"/>
</radialGradient>
<radialGradient id="paint1_radial_35_1979" cx="0" cy="0" r="1" gradientUnits="userSpaceOnUse" gradientTransform="translate(1.86515 7.54306) rotate(-39.4857) scale(1.11332 2.99783)">
<stop stop-color="#D86D00"/>
<stop offset="0.3292" stop-color="#DC6C0A" stop-opacity="0.6708"/>
<stop offset="0.8792" stop-color="#E86823" stop-opacity="0.1208"/>
<stop offset="1" stop-color="#EB672A" stop-opacity="0"/>
</radialGradient>
<radialGradient id="paint2_radial_35_1979" cx="0" cy="0" r="1" gradientUnits="userSpaceOnUse" gradientTransform="translate(11.2393 7.70583) rotate(-140.514) scale(1.11332 2.99783)">
<stop stop-color="#D86D00"/>
<stop offset="0.3292" stop-color="#DC6C0A" stop-opacity="0.6708"/>
<stop offset="0.8792" stop-color="#E86823" stop-opacity="0.1208"/>
<stop offset="1" stop-color="#EB672A" stop-opacity="0"/>
</radialGradient>
<radialGradient id="paint3_radial_35_1979" cx="0" cy="0" r="1" gradientUnits="userSpaceOnUse" gradientTransform="translate(10.4467 1.75271) rotate(46.8275) scale(4.35971 3.00076)">
<stop stop-color="#ED9900"/>
<stop offset="1" stop-color="#ED9900" stop-opacity="0"/>
</radialGradient>
<radialGradient id="paint4_radial_35_1979" cx="0" cy="0" r="1" gradientUnits="userSpaceOnUse" gradientTransform="translate(6.15562 4.52887) rotate(-41.4123) scale(3.46339 1.89793)">
<stop stop-color="#FFEC5F"/>
<stop offset="1" stop-color="#FFEC5F" stop-opacity="0"/>
</radialGradient>
<radialGradient id="paint5_radial_35_1979" cx="0" cy="0" r="1" gradientUnits="userSpaceOnUse" gradientTransform="translate(5.1168 12.2636) rotate(-26.3216) scale(3.30985 1.56863)">
<stop stop-color="#D86D00"/>
<stop offset="0.3292" stop-color="#DC6C0A" stop-opacity="0.6708"/>
<stop offset="0.8792" stop-color="#E86823" stop-opacity="0.1208"/>
<stop offset="1" stop-color="#EB672A" stop-opacity="0"/>
</radialGradient>
<radialGradient id="paint6_radial_35_1979" cx="0" cy="0" r="1" gradientUnits="userSpaceOnUse" gradientTransform="translate(8.09307 12.3569) rotate(-153.678) scale(3.30985 1.56863)">
<stop stop-color="#D86D00"/>
<stop offset="0.3292" stop-color="#DC6C0A" stop-opacity="0.6708"/>
<stop offset="0.8792" stop-color="#E86823" stop-opacity="0.1208"/>
<stop offset="1" stop-color="#EB672A" stop-opacity="0"/>
</radialGradient>
<radialGradient id="paint7_radial_35_1979" cx="0" cy="0" r="1" gradientUnits="userSpaceOnUse" gradientTransform="translate(6.62003 14.1194) rotate(177.226) scale(4.37844 4.48891)">
<stop stop-color="#D86D00"/>
<stop offset="0.3292" stop-color="#DC6C0A" stop-opacity="0.6708"/>
<stop offset="0.8792" stop-color="#E86823" stop-opacity="0.1208"/>
<stop offset="1" stop-color="#EB672A" stop-opacity="0"/>
</radialGradient>
<radialGradient id="paint8_radial_35_1979" cx="0" cy="0" r="1" gradientUnits="userSpaceOnUse" gradientTransform="translate(8.09776 9.27469) rotate(158.456) scale(4.62674 3.49757)">
<stop stop-color="#D86D00"/>
<stop offset="0.3292" stop-color="#DC6C0A" stop-opacity="0.6708"/>
<stop offset="0.8792" stop-color="#E86823" stop-opacity="0.1208"/>
<stop offset="1" stop-color="#EB672A" stop-opacity="0"/>
</radialGradient>
<radialGradient id="paint9_radial_35_1979" cx="0" cy="0" r="1" gradientUnits="userSpaceOnUse" gradientTransform="translate(6.14066 5.02021) rotate(158.456) scale(2.78765 2.10731)">
<stop stop-color="white"/>
<stop offset="1" stop-color="white" stop-opacity="0"/>
</radialGradient>
<radialGradient id="paint10_radial_35_1979" cx="0" cy="0" r="1" gradientUnits="userSpaceOnUse" gradientTransform="translate(2.80095 1.75224) rotate(133.173) scale(4.35971 3.00076)">
<stop stop-color="#ED9900"/>
<stop offset="1" stop-color="#ED9900" stop-opacity="0"/>
</radialGradient>
<radialGradient id="paint11_radial_35_1979" cx="0" cy="0" r="1" gradientUnits="userSpaceOnUse" gradientTransform="translate(6.69136 6.69847) scale(7.17701)">
<stop stop-color="#FF8000" stop-opacity="0"/>
<stop offset="0.5434" stop-color="#FD7F00" stop-opacity="0.5434"/>
<stop offset="0.7391" stop-color="#F67C00" stop-opacity="0.7391"/>
<stop offset="0.8781" stop-color="#EB7600" stop-opacity="0.8781"/>
<stop offset="0.9903" stop-color="#DA6E00" stop-opacity="0.9903"/>
<stop offset="1" stop-color="#D86D00"/>
</radialGradient>
<radialGradient id="paint12_radial_35_1979" cx="0" cy="0" r="1" gradientUnits="userSpaceOnUse" gradientTransform="translate(6.62332 6.93027) scale(6.20181)">
<stop stop-color="#A3541E" stop-opacity="0.5"/>
<stop offset="0.5109" stop-color="#A5551D" stop-opacity="0.7555"/>
<stop offset="0.695" stop-color="#AC5819" stop-opacity="0.8475"/>
<stop offset="0.8261" stop-color="#B75E12" stop-opacity="0.9131"/>
<stop offset="0.9315" stop-color="#C86609" stop-opacity="0.9657"/>
<stop offset="1" stop-color="#D86D00"/>
</radialGradient>
</defs>
</svg>
