<svg width="58" height="58" viewBox="0 0 58 58" fill="none" xmlns="http://www.w3.org/2000/svg">
<path d="M29 54.375C43.0142 54.375 54.375 43.0142 54.375 29C54.375 14.9858 43.0142 3.625 29 3.625C14.9858 3.625 3.625 14.9858 3.625 29C3.625 43.0142 14.9858 54.375 29 54.375Z" fill="url(#paint0_linear_166_31)"/>
<path d="M41.6632 18.5034C41.889 17.0435 40.501 15.8912 39.2029 16.4611L13.3487 27.8124C12.4178 28.2212 12.4859 29.6313 13.4514 29.9387L18.7831 31.6366C19.8008 31.9607 20.9027 31.7931 21.7913 31.1792L33.8122 22.8743C34.1747 22.6238 34.5698 23.1393 34.26 23.4585L25.6072 32.3796C24.7678 33.2451 24.9344 34.7115 25.9441 35.3447L35.6319 41.4198C36.7185 42.1011 38.1163 41.4167 38.3195 40.1036L41.6632 18.5034Z" fill="white"/>
<defs>
<linearGradient id="paint0_linear_166_31" x1="29" y1="3.625" x2="29" y2="54.375" gradientUnits="userSpaceOnUse">
<stop stop-color="#37BBFE"/>
<stop offset="1" stop-color="#007DBB"/>
</linearGradient>
</defs>
</svg>
