<svg width="60" height="59" viewBox="0 0 60 59" fill="none" xmlns="http://www.w3.org/2000/svg">
<circle cx="30.043" cy="29.5" r="29.5" fill="#2AA3D2"/>
<path d="M41.1559 18.2031C41.1559 18.2031 43.7461 17.2075 43.5302 19.6253C43.4583 20.6209 42.8107 24.1054 42.3071 27.8744L40.5803 39.039C40.5803 39.039 40.4364 40.6746 39.1413 40.959C37.8461 41.2435 35.9035 39.9635 35.5437 39.679C35.2559 39.4657 30.1475 36.2656 28.3487 34.7011C27.845 34.2745 27.2694 33.4211 28.4206 32.4255L35.9754 25.3143C36.8388 24.461 37.7022 22.4698 34.1047 24.8876L24.0317 31.6433C24.0317 31.6433 22.8805 32.3544 20.722 31.7144L16.0452 30.2922C16.0452 30.2922 14.3184 29.2255 17.2684 28.1588C24.4634 24.8165 33.3133 21.4031 41.1559 18.2031Z" fill="white"/>
</svg>
