<svg width="27" height="27" viewBox="0 0 27 27" fill="none" xmlns="http://www.w3.org/2000/svg">
<circle cx="13.1678" cy="13.1678" r="13.1678" fill="#5B5B72"/>
<path d="M16.5951 8.23452C16.5951 8.23452 17.6392 7.8274 17.5522 8.81614C17.5232 9.22327 17.2622 10.6482 17.0591 12.1895L16.3631 16.7552C16.3631 16.7552 16.3051 17.424 15.783 17.5403C15.261 17.6566 14.4779 17.1332 14.3329 17.0169C14.2169 16.9296 12.1577 15.621 11.4326 14.9812C11.2296 14.8067 10.9975 14.4578 11.4616 14.0506L14.5069 11.1426C14.8549 10.7936 15.203 9.97937 13.7528 10.9681L9.69241 13.7308C9.69241 13.7308 9.22837 14.0216 8.3583 13.7599L6.4731 13.1782C6.4731 13.1782 5.77703 12.742 6.96615 12.3058C9.86644 10.939 13.4338 9.54314 16.5951 8.23452Z" fill="black"/>
</svg>
