<svg width="73" height="73" viewBox="0 0 73 73" fill="none" xmlns="http://www.w3.org/2000/svg">
<circle cx="36.1036" cy="36.1036" r="33.9337" fill="#282836" stroke="#3D3D4E" stroke-width="4.33982"/>
<path d="M30.8415 51.7702C30.8415 51.7702 32.7432 50.1662 32.7723 46.2542C39.0971 42.6029 43.4186 38.0528 43.4186 38.0528C43.4186 38.0528 46.4965 42.1965 43.2727 45.9815C37.7503 52.4633 30.8415 51.7702 30.8415 51.7702ZM22.2253 40.5043C22.2253 40.5043 26.6866 30.0712 29.6011 26.6493C30.9125 25.1097 32.2524 23.8876 33.581 22.8738L45.2642 32.8248C44.4758 34.3003 43.4826 35.8193 42.172 37.358C39.3018 40.7279 29.6753 46.8498 29.6753 46.8498L22.2253 40.5043ZM37.8125 29.7321C36.4988 28.6131 34.5237 28.7735 33.4014 30.0912C32.2799 31.408 32.435 33.3843 33.7487 34.5033C35.0625 35.6223 37.0385 35.4627 38.1608 34.145C39.2841 32.8281 39.1272 30.8519 37.8125 29.7321ZM46.3754 18.6426L49.1421 15.3944L50.0686 16.1835L47.3723 19.3491C47.7732 21.0237 48.5461 25.9216 45.8109 31.7587L34.5447 22.1628C39.7179 18.6266 44.5154 18.5197 46.3754 18.6426ZM17.183 40.1367C17.183 40.1367 15.3994 33.4262 20.9208 26.9436C24.1446 23.1586 28.7253 25.538 28.7253 25.538C28.7253 25.538 24.9208 30.5284 22.3214 37.3528C18.4622 38.0042 17.183 40.1367 17.183 40.1367ZM25.1708 47.767L25.0572 46.3276L22.0208 48.2165L23.2459 44.7848L21.4256 45.5593L22.5179 42.2837L27.8471 46.8228L25.1708 47.767Z" fill="#3D3D4E"/>
</svg>
