<svg width="25" height="20" viewBox="0 0 25 20" fill="none" xmlns="http://www.w3.org/2000/svg">
<g opacity="0.91">
<path d="M16.8719 1.00238C15.7195 1.00408 14.641 1.57032 13.9852 2.51801C14.231 3.13972 14.3719 3.81199 14.3719 4.51605C14.3719 5.20979 14.1968 5.84764 13.9344 6.44574C14.5834 7.43654 15.6875 8.03411 16.8719 8.03558C18.8148 8.03603 20.3899 6.4609 20.3895 4.51801C20.3889 2.57588 18.814 1.00193 16.8719 1.00238ZM20.0184 8.76605L17.9305 12.0317C18.4592 13.1855 18.7691 14.4484 18.8055 15.77L18.827 16.5532L18.3114 17.1411C17.5668 17.9917 16.6975 18.7291 15.7469 19.3539C16.1331 19.3972 16.5248 19.4203 16.9227 19.4203C20.0774 19.4203 22.8998 18.0259 24.825 15.8266C24.74 12.7361 22.8624 9.97862 20.0184 8.76605Z" fill="white"/>
<path d="M8.85434 1C8.39251 1 7.9352 1.09097 7.50853 1.2677C7.08185 1.44443 6.69417 1.7035 6.36761 2.03006C6.04105 2.35662 5.782 2.74429 5.60527 3.17096C5.42854 3.59763 5.33757 4.05493 5.33757 4.51675C5.33757 4.97858 5.42854 5.43591 5.60527 5.86258C5.782 6.28925 6.04105 6.67692 6.36761 7.00348C6.69417 7.33004 7.08185 7.5891 7.50853 7.76584C7.9352 7.94257 8.39251 8.03354 8.85434 8.03354C9.31616 8.03354 9.77347 7.94257 10.2001 7.76584C10.6268 7.5891 11.0145 7.33004 11.3411 7.00348C11.6676 6.67692 11.9267 6.28925 12.1034 5.86258C12.2801 5.43591 12.3711 4.97858 12.3711 4.51675C12.3711 4.05493 12.2801 3.59763 12.1034 3.17096C11.9267 2.74429 11.6676 2.35659 11.3411 2.03003C11.0145 1.70347 10.6268 1.44443 10.2001 1.2677C9.77347 1.09097 9.31616 1 8.85434 1ZM12.0002 8.76334L8.92989 13.5663L5.81838 8.76675C2.9719 9.97466 1.08983 12.73 1 15.8209C2.92524 18.0218 5.74805 19.4183 8.90413 19.4183C12.0589 19.4183 14.8814 18.0236 16.8066 15.8243C16.7215 12.7338 14.8442 9.9759 12.0002 8.76334Z" fill="white"/>
<path d="M16.8719 1.00238C15.7195 1.00408 14.641 1.57032 13.9852 2.51801C14.231 3.13972 14.3719 3.81199 14.3719 4.51605C14.3719 5.20979 14.1968 5.84764 13.9344 6.44574C14.5834 7.43654 15.6875 8.03411 16.8719 8.03558C18.8148 8.03603 20.3899 6.4609 20.3895 4.51801C20.3889 2.57588 18.814 1.00193 16.8719 1.00238ZM20.0184 8.76605L17.9305 12.0317C18.4592 13.1855 18.7691 14.4484 18.8055 15.77L18.827 16.5532L18.3114 17.1411C17.5668 17.9917 16.6975 18.7291 15.7469 19.3539C16.1331 19.3972 16.5248 19.4203 16.9227 19.4203C20.0774 19.4203 22.8998 18.0259 24.825 15.8266C24.74 12.7361 22.8624 9.97862 20.0184 8.76605Z" stroke="#FF0000" stroke-width="0.004"/>
<path d="M8.85434 1C8.39251 1 7.9352 1.09097 7.50853 1.2677C7.08185 1.44443 6.69417 1.7035 6.36761 2.03006C6.04105 2.35662 5.782 2.74429 5.60527 3.17096C5.42854 3.59763 5.33757 4.05493 5.33757 4.51675C5.33757 4.97858 5.42854 5.43591 5.60527 5.86258C5.782 6.28925 6.04105 6.67692 6.36761 7.00348C6.69417 7.33004 7.08185 7.5891 7.50853 7.76584C7.9352 7.94257 8.39251 8.03354 8.85434 8.03354C9.31616 8.03354 9.77347 7.94257 10.2001 7.76584C10.6268 7.5891 11.0145 7.33004 11.3411 7.00348C11.6676 6.67692 11.9267 6.28925 12.1034 5.86258C12.2801 5.43591 12.3711 4.97858 12.3711 4.51675C12.3711 4.05493 12.2801 3.59763 12.1034 3.17096C11.9267 2.74429 11.6676 2.35659 11.3411 2.03003C11.0145 1.70347 10.6268 1.44443 10.2001 1.2677C9.77347 1.09097 9.31616 1 8.85434 1ZM12.0002 8.76334L8.92989 13.5663L5.81838 8.76675C2.9719 9.97466 1.08983 12.73 1 15.8209C2.92524 18.0218 5.74805 19.4183 8.90413 19.4183C12.0589 19.4183 14.8814 18.0236 16.8066 15.8243C16.7215 12.7338 14.8442 9.9759 12.0002 8.76334Z" stroke="#FF0000" stroke-width="0.004"/>
</g>
</svg>
